<?xml version="1.0" standalone="no"?>
<!DOCTYPE svg PUBLIC "-//W3C//DTD SVG 1.1//EN" "http://www.w3.org/Graphics/SVG/1.1/DTD/svg11.dtd" >
<svg xmlns="http://www.w3.org/2000/svg">
<defs>
  <font id="gob-cl" horiz-adv-x="1000">
    <font-face font-family="gob-cl"
      units-per-em="1000" ascent="1000"
      descent="0" />
    <missing-glyph horiz-adv-x="0" />
    <glyph glyph-name="accessibility"
      unicode="&#xEA01;"
      horiz-adv-x="1000" d="M439.14375 277.959375V31.25H340.459375V623.35625H93.75V722.0393750000001H883.225V623.35625H636.5125V31.25H537.828125V277.959375H439.14375zM488.4875 771.3815625C433.984375 771.3815625 389.803125 815.5640625 389.803125 870.0659375C389.803125 924.5675 433.984375 968.75 488.4875 968.75C542.9875 968.75 587.171875 924.5675 587.171875 870.0659375C587.171875 815.5640625 542.9875 771.3815625 488.4875 771.3815625z" />
    <glyph glyph-name="add-circle-fill"
      unicode="&#xEA02;"
      horiz-adv-x="1000" d="M500 968.75C241.25 968.75 31.25 758.75 31.25 500C31.25 241.25 241.25 31.25 500 31.25C758.75 31.25 968.75 241.25 968.75 500C968.75 758.75 758.75 968.75 500 968.75zM734.375 453.125H546.875V265.625H453.125V453.125H265.625V546.875H453.125V734.375H546.875V546.875H734.375V453.125z" />
    <glyph glyph-name="add-circle-line"
      unicode="&#xEA03;"
      horiz-adv-x="1000" d="M546.875 734.375H453.125V546.875H265.625V453.125H453.125V265.625H546.875V453.125H734.375V546.875H546.875V734.375zM500 968.75C241.25 968.75 31.25 758.75 31.25 500C31.25 241.25 241.25 31.25 500 31.25C758.75 31.25 968.75 241.25 968.75 500C968.75 758.75 758.75 968.75 500 968.75zM500 125C293.28125 125 125 293.28125 125 500C125 706.71875 293.28125 875 500 875C706.71875 875 875 706.71875 875 500C875 293.28125 706.71875 125 500 125z" />
    <glyph glyph-name="arrow-left"
      unicode="&#xEA04;"
      horiz-adv-x="1000" d="M31.25 497.5968750000001L283.7437500000001 750V540.83125H968.75V454.359375H283.7437500000001V245.19375L31.25 497.5968750000001z" />
    <glyph glyph-name="arrow-line"
      unicode="&#xEA05;"
      horiz-adv-x="1000" d="M291.174375 31.25L218.75 102.034375L616.6125 498.69375L218.75 895.356875L288.4825 968.75L759.278125 498.69375L291.174375 31.25z" />
    <glyph glyph-name="arrow-right"
      unicode="&#xEA06;"
      horiz-adv-x="1000" d="M968.75 497.5968750000001L716.25625 750V540.83125H31.25V454.359375H716.25625V245.19375L968.75 497.5968750000001z" />
    <glyph glyph-name="arrow"
      unicode="&#xEA07;"
      horiz-adv-x="1000" d="M429.63125 216.80625V215.4375L417.76875 212.978125H31.25V294.46875H397.959375L788.3656249999999 684.875L660.740625 812.5L966.64375 810.3934375L968.75 504.490625L841.125 632.115625L430.4875 215.9499999999999L429.63125 216.80625z" />
    <glyph glyph-name="authority"
      unicode="&#xEA08;"
      horiz-adv-x="1000" d="M409.2625 939.01625C409.2625 955.4178125 422.60625 968.75 439.009375 968.75H939.003125C955.409375 968.75 968.75 955.4178125 968.75 939.01625V550.84375C968.75 534.44375 955.409375 521.109375 939.003125 521.109375H666.971875L507.2375 361.3531250000001C620.471875 306.3468750000001 694.3375000000001 191.2781249999999 694.3375000000001 63.071875V46.353125L688.990625 41.00625H541.6187500000001L477.909375 41.053125L474.128125 42.6187500000001L210.4446875 306.175C190.856875 294 173.1434375 279.8937500000001 157.511875 263.9406250000001L342.73125 78.7218750000001L380.421875 41.00625H36.596875L31.25 46.353125V63.071875C31.25 135.7312499999999 55.6253125 206.696875 100.28125 264.7625000000001L109.67 276.8718750000001C109.826875 277.078125 113.9090625 281.896875 121.9171875 291.325C139.898125 309.04375 158.4403125 324.6624999999999 178.5834375 338.0999999999999L183.6946875 342.5968750000001L203.220625 353.321875C217.3165625 361.0625 232.58 367.984375 248.3784375 373.85C271.7959375 384.0343750000001 296.6584375 390.1906250000001 325.396875 392.93125C230.93 410.5375 159.20125 493.58125 159.20125 593.08125C159.20125 705.3328125 250.5296875 796.65 362.7937500000001 796.65C378.34375 796.65 393.828125 794.7528125 409.2625 791.0796875V939.01625zM487.721875 370.09375V432.6624999999999C461.628125 412.259375 431.15625 398.515625 398.609375 392.671875C429.35 389.3375 459.265625 381.721875 487.721875 370.09375zM924.609375 924.62H453.40625V775.1012499999999C521.95 740.861875 566.3843750000001 670.91875 566.3843750000001 593.08125C566.3843750000001 551.684375 553.89375 512.06875 531.8625000000001 481.484375V448.4125L647.1343750000001 563.675L650.915625 565.240625H924.609375V924.62zM362.7937500000001 433.6187500000001C450.7125 433.6187500000001 522.24375 505.15625 522.24375 593.08125C522.24375 680.996875 450.7125 752.52 362.7937500000001 752.52C274.8740625000001 752.52 203.343125 680.996875 203.343125 593.08125C203.343125 505.15625 274.8746875 433.6187500000001 362.7937500000001 433.6187500000001zM649.3562499999999 85.1374999999999C638.015625 233.9125 513.240625 350.475 362.7937500000001 350.475C338.346875 350.475 317.3718750000001 348.396875 298.7128125 344.109375L388.578125 254.24375L557.765625 85.1374999999999H649.3562499999999zM273.8575 85.1374999999999L129.0303125 229.975C98.5765625 187.375 80.29625 137.21875 76.2496875 85.1374999999999H273.8575zM545.3249999999999 706.8362500000001V785.84875L550.671875 791.1956250000001H629.6843749999999L635.03125 785.84875V706.8362500000001L629.6843749999999 701.4893750000001H550.671875L545.3249999999999 706.8362500000001zM651.13125 706.8362500000001V785.84875L656.478125 791.1956250000001H735.4906249999999L740.8375000000001 785.84875V706.8362500000001L735.4906249999999 701.4893750000001H656.478125L651.13125 706.8362500000001zM756.959375 706.8362500000001V785.84875L762.30625 791.1956250000001H841.31875L846.665625 785.84875V706.8362500000001L841.31875 701.4893750000001H762.30625L756.959375 706.8362500000001z" />
    <glyph glyph-name="breadcrumb"
      unicode="&#xEA09;"
      horiz-adv-x="281.25" d="M279.7028125 500L0 250V750L279.7028125 500z" />
    <glyph glyph-name="briefcase"
      unicode="&#xEA0A;"
      horiz-adv-x="1000" d="M703.7624999999999 519.540625H320.209375V497.715625C320.209375 472.240625 298.7371875 451.578125 272.2653125000001 451.578125C245.793125 451.578125 224.32125 472.240625 224.32125 497.715625V519.540625H81.783125V222.134375H918.215625V519.540625H799.65V497.715625C799.65 472.240625 778.178125 451.578125 751.7062500000001 451.578125C725.234375 451.578125 703.7624999999999 472.240625 703.7624999999999 497.715625V519.540625zM344.18125 752.72V820.6809375C344.18125 833.4215624999999 354.9156250000001 843.75 368.1531250000001 843.75H631.8468750000001C645.084375 843.75 655.81875 833.4215624999999 655.81875 820.6809375V752.72H943.484375C957.4375 752.72 968.75 741.8340625000001 968.75 728.4053125V197.81875C968.75 184.390625 957.4375 173.50625 943.484375 173.50625H56.5165625C42.5621875 173.50625 31.25 184.390625 31.25 197.81875V728.4053125C31.25 741.8340625000001 42.5621875 752.72 56.5165625 752.72H344.18125zM81.783125 568.16875H918.215625V704.090625H81.783125V568.16875zM392.125 751.474375H607.875V797.6121875H392.125V751.474375z" />
    <glyph glyph-name="burger"
      unicode="&#xEA0B;"
      horiz-adv-x="1000" d="M31.25 781.25H968.75V693.8921875H31.25V781.25zM31.25 541.015625H968.75V453.65625H31.25V541.015625zM31.25 300.78125H968.75V213.421875H31.25V300.78125z" />
    <glyph glyph-name="bus"
      unicode="&#xEA0C;"
      horiz-adv-x="1000" d="M113.045625 769.3634375V823.175C113.045625 929.583125 156.095 968.75 270.1603125 968.75H756.259375C848.084375 968.75 878.653125 919.328125 878.653125 805.0490625V769.3634375H934.31875C953.546875 769.3634375 968.75 752.9834375 968.75 733.2246875000001V593.653125C968.75 573.89375 953.546875 557.515625 934.31875 557.515625H887.0281249999999V225.015625C887.0281249999999 205.80625 874.9875000000001 190.08125 867.878125 177.4343750000001L868.3125 117.61875C868.3125 85.5437500000001 844.0906249999999 59.0500000000001 813.6281250000001 59.0500000000001H732.628125C702.1625 59.0500000000001 677.940625 85.5437500000001 677.940625 117.61875V133.81875H326.8875V117.61875C326.8875 85.5437500000001 306.428125 59.0500000000001 275.96375 59.0500000000001H192.036875C161.5859375 59.0500000000001 137.350625 85.546875 137.350625 117.61875V160.4343750000001C121.4053125 174.9562500000001 113.045625 196.0125000000001 113.045625 225.015625V557.515625H65.6821875C46.46625 557.515625 31.25 573.9000000000001 31.25 593.653125V733.2246875000001C31.25 752.98 46.46625 769.3634375 65.6821875 769.3634375H113.045625zM71.880625 729.5959375V592.51875H107.5815625V729.5959375H71.880625zM888.99375 592.51875H928.165625V729.5959375H888.99375V592.51875zM842.134375 799.5646875C842.134375 894.599375 823.740625 924.33625 757.25 924.33625H277.0921875C183.414375 924.33625 157.91 901.1321875 157.91 817.4690625000001V226.621875C157.91 187.3249999999999 182.50625 173.46875 242.7953125 173.46875H757.25C794.2781249999999 173.46875 842.134375 202.84375 842.134375 241.359375V799.5646875zM722.50625 115.2375C722.50625 103.2875 730.95 94.05 740.734375 94.05H813.65C823.434375 94.05 831.8781250000001 103.2875 831.8781250000001 115.2375V143.490625C811.2875 131.165625 782.334375 131.4375 745.94375 131.4375H722.50625V115.2375zM177.98125 138.7406249999999V115.2375C177.98125 103.296875 186.435625 94.05 196.21 94.05H269.125C278.9096875 94.05 287.35375 103.2875 287.35375 115.2375V131.4375H239.611875C215.7975 131.4375 195.1671875 133.7125 177.98125 138.7406249999999zM717.60625 207.59375C676.496875 207.59375 643.1687499999999 241.5875 643.1687499999999 283.515625C643.1687499999999 325.446875 676.496875 359.4375 717.60625 359.4375C758.715625 359.4375 792.04375 325.446875 792.04375 283.515625C792.04375 241.5875 758.715625 207.59375 717.60625 207.59375zM717.60625 242.634375C739.74375 242.634375 757.6875 260.9375 757.6875 283.515625C757.6875 306.09375 739.74375 324.396875 717.60625 324.396875C695.46875 324.396875 677.5250000000001 306.09375 677.5250000000001 283.515625C677.5250000000001 260.9375 695.46875 242.634375 717.60625 242.634375zM282.4387500000001 207.59375C241.3284375 207.59375 208.001875 241.5875 208.001875 283.515625C208.001875 325.446875 241.3284375 359.4375 282.4387500000001 359.4375C323.55 359.4375 356.875 325.446875 356.875 283.515625C356.875 241.5875 323.55 207.59375 282.4387500000001 207.59375zM282.4387500000001 242.634375C304.575 242.634375 322.51875 260.9375 322.51875 283.515625C322.51875 306.09375 304.575 324.396875 282.4387500000001 324.396875C260.3025 324.396875 242.3575 306.09375 242.3575 283.515625C242.3575 260.9375 260.3025 242.634375 282.4387500000001 242.634375zM736.996875 808.0584375C736.996875 787.4734375 720.8625 770.6734375 700.803125 770.6734375H323.546875C303.503125 770.6734375 287.35375 787.4771875 287.35375 808.0584375V845.4434375000001C287.35375 866.0246875 303.503125 882.8284375 323.546875 882.8284375H700.803125C720.8625 882.8284375 736.996875 866.028125 736.996875 845.4434375000001V808.0584375zM700.5375 845.4434375000001H323.8125V808.0584375H700.5375V845.4434375000001zM255.8440625000001 393.825C210.630625 393.825 184.98875 420.725 184.98875 467.721875V687.3125C184.98875 734.30875 210.630625 761.211875 255.8440625000001 761.211875H744.1999999999999C789.415625 761.211875 815.0562500000001 734.30875 815.0562500000001 687.3125V467.721875C815.0562500000001 424.9875 778.571875 395.26875 744.23125 395.25L255.8440625000001 393.825zM740.1624999999999 435.6125C755.475 435.6125 773.453125 450.2531250000001 773.453125 469.515625V685.51875C773.453125 711.29 764.365625 720.826875 740.2125000000001 720.826875H259.831875C235.6809375 720.826875 226.59125 711.29 226.59125 685.51875V469.515625C226.59125 443.746875 235.6809375 434.209375 259.7800000000001 434.209375L740.1624999999999 435.6125z" />
    <glyph glyph-name="call-info"
      unicode="&#xEA0D;"
      horiz-adv-x="1000" d="M893.7 895.7015625C993.765625 799.1103125 993.765625 642.046875 893.7 544.8125C809.334375 463.215625 680.53125 450.6375 581.4656249999999 506.915625C543.209375 478.375 463.715625 483.484375 463.55625 487.746875C463.459375 490.35 498.365625 498.1093749999999 520.65625 513.95C533.5875 521.36875 534.4124999999999 533.00625 532.809375 537.121875C533.1218749999999 540.884375 529.071875 547.31875 520.65625 556.421875C430.94375 653.81875 434.453125 802.4965625 531.0125 895.7015625C630.915625 993.0994375 793.63125 993.0994375 893.7 895.7015625zM712.771875 530.459375C821.528125 530.459375 909.403125 615.11875 909.403125 720.0953125C909.403125 825.0721874999999 821.528125 909.8921875 712.771875 909.8921875C604.0187500000001 909.8921875 516.1437500000001 825.2334375 516.1437500000001 720.2565625C516.1437500000001 615.28125 604.0187500000001 530.459375 712.771875 530.459375zM603.71875 323.409375C633.7125 292.8062500000001 663.703125 262.203125 693.696875 231.6C718.525 206.265625 718.525 174.646875 693.696875 148.3C677.209375 130.4656250000001 658.540625 114.65625 643.046875 95.6062500000001C619.4093750000001 69.0562500000001 590.4093750000001 59.7312500000001 556.246875 61.759375C508.775 65.0031250000001 464.284375 81.8250000000001 420.784375 102.9031249999999C324.45 150.328125 241.8215625 216.803125 172.5009375 301.31875C121.85125 363.540625 79.5440625 430.015625 51.5375 507.03125C38.0309375 543.91875 28.69559375 581.81875 31.87375 620.934375C34.0584375 645.053125 43.1953125 666.13125 60.873125 684.16875C79.5440625 703.2196875 98.01625 722.0684375000001 116.6871875 741.1196875C141.5153125 765.4403125 172.5009375 765.4403125 196.33625 741.1196875C211.8290625 726.3246875 226.32875 710.5159375000001 241.8215625 694.7075C256.32125 679.9124999999999 270.8209375 665.11875 286.3140625000001 649.309375C312.1353125 622.9625 312.1353125 592.35625 286.3140625000001 566.009375C267.643125 546.959375 250.1640625 528.109375 230.5 510.071875C225.335625 504.803125 225.335625 501.559375 227.321875 495.278125C239.8353125 464.675 257.314375 438.325 276.9784375 412.9906249999999C317.3 362.525 362.784375 318.140625 416.6125 283.28125C427.934375 275.78125 441.440625 270.5125000000001 452.7625 263.215625C458.91875 260.1750000000001 463.090625 261.190625 468.25625 266.459375C486.925 285.509375 505.4 304.359375 524.06875 323.409375C548.8968749999999 348.74375 579.884375 348.74375 603.71875 323.409375zM752.084375 621.6812500000001C756.321875 624.325 759.19375 620.625 758.646875 615.865625C758.646875 613.046875 756.459375 609.34375 755.090625 607.58125C745.109375 594.715625 732.9375 586.4312500000001 718.7125 586.4312500000001C712.284375 586.4312500000001 705.171875 587.3125 698.74375 588.19375C688.078125 589.95625 673.715625 607.40625 675.90625 625.734375C677.271875 637.54375 678.778125 650.409375 680.1437500000001 663.278125C683.6999999999999 685.309375 686.5718750000001 707.3403125 689.44375 729.371875C689.44375 731.134375 689.44375 732.191875 689.44375 733.954375C689.44375 743.1196875 687.25625 746.8209375 680.1437500000001 747.7021875C676.5875 747.7021875 673.715625 748.5834375 670.84375 749.4646875C667.2875 751.4034375 665.921875 754.9284375 665.921875 757.7484375C666.603125 761.4496875 668.7937499999999 764.2696874999999 672.35 765.1509375C674.5375 766.0321875 676.5875 766.0321875 678.778125 766.0321875C686.5718750000001 766.0321875 695.053125 766.0321875 703.6687499999999 766.0321875C712.284375 766.0321875 721.5843749999999 766.0321875 730.0625 766.0321875C736.4906249999999 766.0321875 740.7312499999999 762.3309375 740.7312499999999 754.0471875000001C741.553125 747.5259375 740.046875 740.1231250000001 739.3625000000001 733.778125C735.8093749999999 708.9265625 732.253125 683.3687500000001 728.696875 658.51875C727.328125 650.234375 725.825 641.95 725.140625 633.6656250000001C724.4562500000001 629.0843749999999 725.140625 625.384375 725.825 620.8C727.190625 616.21875 730.0625 612.515625 734.3031249999999 613.396875C737.859375 614.278125 740.7312499999999 615.3375 744.2875 617.0999999999999C747.159375 617.98125 749.2125 620.8 752.084375 621.6812500000001zM713.1843749999999 790.3559375C697.021875 790.3559375 683.828125 802.981875 683.0875 819.48125C683.828125 835.12 697.021875 847.8890625 713.1843749999999 847.8890625C729.34375 847.8890625 742.5374999999999 834.4025 742.5374999999999 818.7637500000001C742.5374999999999 803.1253125000001 729.34375 790.3559375 713.1843749999999 790.3559375z" />
    <glyph glyph-name="claveunica"
      unicode="&#xEA0E;"
      horiz-adv-x="1000" d="M661.103125 926.8528125L661.1343750000001 926.9115625C756.728125 921.3446875 968.75 756.8909375000001 968.75 499.384375C968.75 241.2625000000001 758.4562500000001 31.25 500 31.25C375.165625 31.25 257.3925000000001 80.5875000000001 168.359375 170.1843750000001C79.9415625 259.165625 31.25 376.065625 31.25 499.384375C31.25 611.74375 73.37875 721.6740625 149.873125 808.955C209.2871875 876.7228125 283.3790625 923.336875 337.784375 928.0246875V792.840625C288.6815625 771.5990625 163.4959375 665.0687499999999 163.4959375 499.3562499999999C163.4959375 317.175 317.596875 163.26875 500 163.26875C685.5375 163.26875 836.5031250000001 314.040625 836.5031250000001 499.3562499999999C836.5031250000001 670.665625 706.6906250000001 771.2475 661.103125 791.7565625V926.8528125zM566.3875 664.365625C634.8249999999999 638.203125 683.4 573.0718750000001 683.4 496.63125C683.4 397.1625 601.278125 316.53125 499.971875 316.53125C398.6625 316.53125 316.54375 397.1625 316.54375 496.63125C316.54375 572.484375 364.384375 637.29375 432.03125 663.809375V968.75H566.3875V664.365625zM499.971875 406.596875C550.625 406.596875 591.6687499999999 446.9093750000001 591.6687499999999 496.659375C591.6687499999999 546.409375 550.625 586.725 499.971875 586.725C449.346875 586.725 408.271875 546.409375 408.271875 496.659375C408.271875 446.9093750000001 449.315625 406.596875 499.971875 406.596875z" />
    <glyph glyph-name="close-line"
      unicode="&#xEA0F;"
      horiz-adv-x="1000" d="M500.5968750000001 582.05L887.3 968.75L968.75 889.1125L581.140625 501.503125L957.615625 125.03125L874.96875 46.6999999999999L500.653125 421.015625L125.030625 45.39375L43.5790625 125.03125L420.109375 501.559375L31.25 890.4178125L113.896875 968.75L500.5968750000001 582.05z" />
    <glyph glyph-name="close"
      unicode="&#xEA10;"
      horiz-adv-x="1000" d="M500 968.75C242.3925 968.75 31.25 757.6075 31.25 500C31.25 242.39375 242.3925 31.25 500 31.25C757.60625 31.25 968.75 242.39375 968.75 500C968.75 757.6075 757.60625 968.75 500 968.75zM596.475 485.028125L745.0687499999999 336.434375C749.1999999999999 328.175 749.1999999999999 319.9125 745.0687499999999 311.678125L691.425 258.0375C683.1625 249.775 670.8 249.775 662.540625 258.0375L513.946875 406.63125C505.684375 414.89375 497.421875 414.89375 489.190625 406.63125L340.596875 258.0375C332.334375 249.775 319.971875 249.775 311.7090625 258.0375L258.0665625 311.678125C253.935625 319.940625 253.935625 328.203125 258.0665625 336.434375L406.659375 485.028125C414.921875 493.290625 414.921875 505.653125 406.659375 513.915625L258.0665625 662.5093750000001C249.8046875 670.771875 249.8046875 683.1343750000001 258.0665625 691.3965625L311.7090625 745.0390625C319.971875 749.1700000000001 328.23125 749.1700000000001 336.465625 745.0390625L489.190625 592.315625C497.45 584.053125 505.7125 584.053125 513.946875 592.315625L662.540625 740.9081249999999C670.8 749.1700000000001 683.1625 749.1700000000001 691.425 740.9081249999999L745.0687499999999 687.265625C749.1999999999999 679.003125 749.1999999999999 670.7406249999999 745.0687499999999 662.5093750000001L596.475 513.915625C588.2125 505.653125 588.2125 493.290625 596.475 485.028125z" />
    <glyph glyph-name="computer"
      unicode="&#xEA11;"
      horiz-adv-x="1000" d="M100.031875 357.625V737.3590624999999C100.031875 779.0353125 134.6815625 812.5 177.0496875 812.5H822.9499999999999C865.31875 812.5 899.96875 779.0353125 899.96875 737.3590624999999V357.625H968.75V339.196875C968.75 268.3406250000001 911.721875 210.9031249999999 841.371875 210.9031249999999L158.626875 210.90625C88.27875 210.90625 31.25 268.34375 31.25 339.196875V357.625H100.031875zM863.36875 357.625V737.3590624999999C863.36875 758.323125 845.440625 775.6384375 822.9499999999999 775.6384375H177.0496875C154.559375 775.6384375 136.6309375 758.323125 136.6309375 737.3590624999999V357.625H186.540625V645.15625C186.540625 684.8687500000001 218.81125 716.9665625 258.505625 716.9665625H741.49375C781.1875 716.9665625 813.459375 684.8687500000001 813.459375 645.15625V357.625H863.36875zM776.859375 357.625V645.15625C776.859375 664.40625 761.078125 680.10625 741.49375 680.10625H258.505625C238.9225 680.10625 223.1396875 664.40625 223.1396875 645.15625V357.625H394.1187500000001C411.31875 357.625 420.4343750000001 350.171875 431.34375 334.578125L432.40625 333.0593750000001C436.25 327.565625 436.734375 327.1531250000001 436.565625 327.1531250000001H561.96875C561.25625 327.1531250000001 563.115625 328.5906250000001 568.084375 334.359375C568.778125 335.1687500000001 568.778125 335.1687500000001 569.503125 336.0125000000001C582.678125 351.365625 590.6437500000001 357.625 605.721875 357.625H776.859375zM158.6271875 247.765625L841.371875 247.765625C885.240625 247.765625 921.840625 279.103125 930.30625 320.765625H605.721875C605.521875 320.765625 603.284375 319.00625 597.190625 311.90625C596.475 311.071875 596.475 311.071875 595.73125 310.2062500000001C583.8 296.353125 575.965625 290.2937500000001 561.96875 290.2937500000001H436.565625C420.871875 290.2937500000001 412.75 297.159375 402.490625 311.8250000000001L401.428125 313.34375C396.815625 319.9375 395.803125 320.765625 394.1187500000001 320.765625H268.9096875H69.694375C78.1609375 279.103125 114.7603125 247.765625 158.6271875 247.765625zM574.959375 631.253125L701.4281249999999 503.878125H646.1C646.1 503.878125 674.75 450.546875 685.621875 424.26875C687.921875 418.703125 677.715625 408.346875 677.715625 408.346875H661.90625L622.3874999999999 487.95625L574.959375 440.190625V631.253125zM290.5484375 628.2875H500V527.565625H290.5484375V628.2875zM290.5484375 506.928125H500V465.615625H290.5484375V506.928125zM290.5484375 449.659375H500V408.346875H290.5484375V449.659375z" />
    <glyph glyph-name="contrast"
      unicode="&#xEA12;"
      horiz-adv-x="1000" d="M500 863.8378124999999V136.1624999999999H863.8375000000001V863.8378124999999H500zM343.75 968.75H968.75V31.25H343.75H31.25V968.75H343.75z" />
    <glyph glyph-name="currency-cycle"
      unicode="&#xEA13;"
      horiz-adv-x="1000" d="M188.4253125 196.55C262.4415625 121.040625 364.328125 82.078125 475.65 82.078125C613.1750000000001 82.078125 738.475 150.2624999999999 811.0656250000001 260.63125C820.11875 274.39375 839.0125 278.46875 853.2687500000001 269.728125C867.525 260.9875000000001 862.321875 238.734375 853.2687500000001 224.96875C769.5906249999999 97.740625 634.3562499999999 31.73125 475.65 31.73125C340.94375 31.73125 229.55 73.5812500000001 144.28375 168.584375L133.7325 104.6218749999999L97.560625 152.771875L113.735625 250.640625L215.065625 235.021875L251.268125 186.8718750000001L188.4253125 196.55zM358.05 836.3209375C190.5628125 790.128125 78.1528125 639.3968749999999 78.1528125 465.859375C78.1528125 410.9500000000001 90.3846875 357.5437500000001 113.6784375 307.90625C120.6478125 293.05625 122.1359375 277.15 106.754375 270.4187500000001C91.3728125 263.690625 79.1959375 268.6875 72.2265625 283.5375C45.3815625 340.74375 31.25 402.44375 31.25 465.859375C31.25 671.190625 158.8678125 839.7984375 359.6 887.4271875L302.21625 929.3221875L363.2468750000001 937.5L445.1 877.6875L383.153125 798.6853125L322.121875 790.5074999999999L358.05 836.3209375zM901.7875 352.675L968.75 382L947.040625 326.31875L853.5374999999999 285.43125L811.221875 375.68125L832.93125 431.3625L860.859375 371.759375C868.9781250000001 402.346875 873.140625 433.8625000000001 873.140625 465.871875C873.140625 667.4875 711.3874999999999 834.09375 504.009375 848.2325C487.165625 849.3809375 475.91875 858.53625 477.10625 874.800625C478.296875 891.065 491.471875 894.723125 508.31875 893.5746875C747.640625 877.2581250000001 920.175 698.56125 920.175 465.871875C920.175 419.596875 909.634375 376.959375 901.884375 352.9718750000001C901.853125 352.871875 901.81875 352.775 901.7875 352.675zM781.40625 465.8125C781.40625 302.753125 644.525 170.5875 475.64375 170.5875C306.760625 170.5875 169.87875 302.753125 169.87875 465.8125C169.87875 628.875 306.760625 761.038125 475.64375 761.038125C644.525 761.038125 781.40625 628.875 781.40625 465.8125zM726.19375 465.8125C726.19375 599.4312500000001 614.03125 707.72875 475.64375 707.72875C337.253125 707.72875 225.09125 599.4312500000001 225.09125 465.8125C225.09125 332.1937499999999 337.253125 223.896875 475.64375 223.896875C614.03125 223.896875 726.19375 332.1937499999999 726.19375 465.8125zM395.69375 396.91875C405.2625000000001 409.7218750000001 419.284375 411.034375 433.9375 402.1C448.921875 391.2312500000001 466.11875 384.11875 485.053125 384.11875C505.540625 384.11875 518.9 394.2312500000001 518.9 409.6593750000001C518.9 421.5812500000001 508.134375 430.078125 476.596875 443.771875C474.946875 444.490625 463.25625 449.50625 459.75625 451.0375C408.0625 473.6812500000001 384.046875 495.284375 384.046875 536.45625C384.046875 576.75625 413.225 610.0531249999999 456.14375 620.64375V632.428125C456.14375 648.103125 466.640625 658.45625 482.7375 658.45625H485.84375C501.56875 658.45625 512.040625 648.846875 512.040625 633.925V622.0875000000001C532.065625 619.05625 548.790625 611.8125 563.240625 602.1C576.209375 594.034375 578.4812499999999 580.565625 571.65 567.48125L566.25 557.39375C557.784375 543.45 542.6593750000001 540.85625 528.48125 549.44375C515.64375 557.421875 501.928125 562.35 486.634375 562.35C465.390625 562.35 450.865625 550.725 450.865625 537.21875C450.865625 526.815625 460.765625 519.096875 489.771875 506.86875C491.203125 506.265625 505.5437499999999 500.321875 509.9 498.4562500000001C561.0375 476.553125 585.71875 453.696875 585.71875 410.775C585.71875 368.5500000000001 556.884375 334.978125 512.040625 325.1625V314.421875C512.040625 299.065625 501.94375 288.421875 485.84375 288.421875H482.7375C467.05625 288.421875 456.14375 297.9625 456.14375 312.95V324.765625C431.675 329.078125 411.6218750000001 339.003125 394.2125000000001 352.1656250000001C381.48125 361.621875 379.8718750000001 376.5281250000001 389.55625 388.459375L395.69375 396.91875z" />
    <glyph glyph-name="decrease-text"
      unicode="&#xEA14;"
      horiz-adv-x="1000" d="M399.796875 330.665625L365.765625 325.940625V286.2375000000001H497.159375V325.940625L462.5 331.928125L493.69375 416.371875H677.390625L707.640625 331.928125L672.978125 325.940625V286.2375000000001H804.6875V325.940625L770.971875 330.665625L613.428125 745.01125H560.178125L399.796875 330.665625zM164.0625 503.7625H394.528125V549.85625H164.0625V503.7625zM512.915625 468.3625000000001L585.3874999999999 665.29375H587.2781249999999L658.4875 468.3625000000001H512.915625z" />
    <glyph glyph-name="doctor"
      unicode="&#xEA15;"
      horiz-adv-x="1000" d="M347.65625 687.2125C341.75 670.1125 338.675 651.95625 338.675 633.321875C338.675 544.203125 405.684375 476.665625 492.5875 476.665625C579.490625 476.665625 646.965625 544.203125 646.965625 633.321875C646.965625 652.64375 643.65625 671.446875 637.325 689.0828125C634.796875 688.624375 632.1750000000001 688.4559375 629.5 688.6103125C628.915625 688.644375 628.33125 688.6937499999999 627.746875 688.75875C583.321875 693.710625 539.290625 686.48125 495.659375 667.0687499999999C446.846875 684.971875 398.378125 691.7306249999999 350.25625 687.35C349.3843750000001 687.26875 348.51875 687.2249999999999 347.65625 687.2125zM665.73125 731.8003125C681.9125 701.94 690.546875 668.25625 690.546875 633.321875C690.546875 521.20625 601.9187499999999 430.31875 492.5875 430.31875C383.2593750000001 430.31875 294.6293750000001 521.20625 294.6293750000001 633.321875C294.6293750000001 663.665625 301.14125 693.0796875 313.48125 719.8843750000001C307.39375 822.0237500000001 316.459375 893.3978125 340.675 934.0071875C367.753125 979.4091875 454.609375 967.378125 487.596875 967.11875C520.99375 966.8559375 619.4375 976.860875 644.4 934.0071875C663.534375 901.1578125 670.64375 833.7553125 665.73125 731.8003125zM887.50625 52.071875V31.25H125V52.071875C125 254.759375 295.9928125 418.4718750000001 506.253125 418.4718750000001C716.515625 418.4718750000001 887.50625 254.759375 887.50625 52.071875zM506.253125 374.146875C328.378125 374.146875 183.360625 241.95625 172.3021875 75.5749999999999H840.2062500000001C829.1468749999999 241.95625 684.128125 374.146875 506.253125 374.146875zM494.353125 711.459375C537.2843750000001 728.1359375 580.978125 734.6621875000001 625.0250000000001 730.86C629.81875 826.5918750000001 623.459375 888.7496874999999 609.5374999999999 912.6525C608.846875 913.83625 605.4812499999999 916.236875 598.321875 918.7803125C588.9593749999999 922.1065625 576.153125 924.3525 560.5218749999999 925.4621875C545.821875 926.505625 531.8531250000001 926.52375 509.553125 925.9071875C493.584375 925.4653125 492.3875 925.4378125 487.284375 925.478125C482.009375 925.519375 482.778125 925.4865625 464.784375 926.3340625C444.875 927.271875 432.21875 927.4221875 419.271875 926.5084375C393.9375 924.7209375 379.29375 918.945625 375.31875 912.2815625C356.984375 881.5375 348.8 819.91625 353.61875 729.391875C400.421875 732.725 447.4125 726.70625 494.353125 711.459375zM664.140625 393.6593750000001C684.2312499999999 383.8843750000001 698.059375 363.9781250000001 711.178125 332.275C716.36875 319.740625 722.9593749999999 293.19375 727.8625 264.8125C728.934375 258.609375 727.209375 252.5625 723.6125 248.03125C731.8562499999999 186.19375 727.403125 119.9031250000001 697.6062499999999 107.109375C697.45625 94.8562499999999 687.725 84.9718750000001 675.740625 84.9718750000001C663.6656250000001 84.9718750000001 653.875 95.0125000000001 653.875 107.3968749999999C653.875 119.7781249999999 663.6656250000001 129.81875 675.740625 129.81875C678.99375 129.81875 682.078125 129.0906250000001 684.853125 127.784375C685.834375 128.475 686.9343749999999 129.025 688.134375 129.396875C704.7156249999999 134.534375 706.225 189.484375 699.603125 242.1624999999999C693.6624999999999 244.8843750000001 689.1 250.4812500000001 687.878125 257.55C683.4656249999999 283.09375 677.53125 306.99375 673.8 316.00625C661.734375 345.15625 652.209375 356.3062500000001 638.2375000000001 358.575C622.0812500000001 361.2 613.2562499999999 356.190625 592.16875 329.7937500000001C585.415625 321.3375000000001 573.5343750000001 301.8499999999999 562.128125 280.00625C558.8499999999999 273.734375 552.8874999999999 269.8812499999999 546.4781250000001 269.140625C540.9125 257.684375 535.6593750000001 246 531.234375 234.96875C513.190625 189.990625 510.425 160.5 520.4718750000001 156.671875C524.734375 155.046875 527.5437499999999 151.171875 528.09375 146.8468750000001C531.259375 142.95625 533.165625 137.946875 533.165625 132.484375C533.165625 120.1 523.375 110.0625 511.3 110.0625C499.225 110.0625 489.434375 120.1 489.434375 132.484375C489.434375 138.5437499999999 491.778125 144.040625 495.5875 148.078125C485.2875 167.0749999999999 491.840625 200.6156249999999 509.328125 244.2125000000001C514.109375 256.1281250000001 519.7874999999999 268.734375 525.809375 281.075C523.221875 286.8062500000001 523.2 293.6687500000001 526.3312500000001 299.6656250000001C538.875 323.6875 552.009375 345.2312500000001 560.7562499999999 356.18125C577.178125 376.740625 591.1593750000001 389.6125000000001 606.0875 396.009375C595.5875000000001 396.203125 581.3375 395.046875 562.640625 392.096875C553.403125 390.6375 544.765625 397.13125 543.34375 406.603125C541.91875 416.075 548.253125 424.934375 557.490625 426.3937500000001C621.121875 436.4406250000001 660.140625 427.7781250000001 664.140625 393.6593750000001zM305.136875 265.25625C310.058125 266.1625 315.125 266.634375 320.3 266.634375C367.38125 266.634375 405.55 227.4968750000001 405.55 179.2125C405.55 130.9312500000001 367.38125 91.7937500000001 320.3 91.7937500000001C273.219375 91.7937500000001 235.0521875 130.9312500000001 235.0521875 179.2125C235.0521875 209.884375 250.4534375 236.865625 273.7575 252.46875C243.10125 332.8 265.595625 381.29375 340.225 382.628125C349.56875 382.796875 357.2750000000001 375.165625 357.4375 365.5843749999999C357.6 356.003125 350.159375 348.0999999999999 340.815625 347.9343750000001C293.3859375 347.084375 281.8221875 324.4812500000001 305.136875 265.25625zM320.3 124.5656250000001C348.334375 124.5656250000001 371.0593750000001 147.86875 371.0593750000001 176.6187500000001C371.0593750000001 205.365625 348.334375 228.66875 320.3 228.66875C292.2675000000001 228.66875 269.5421875 205.365625 269.5421875 176.6187500000001C269.5421875 147.86875 292.2675000000001 124.5656250000001 320.3 124.5656250000001zM320.18125 141.915625C301.4934375000001 141.915625 286.343125 157.453125 286.343125 176.6187500000001C286.343125 195.78125 301.4934375000001 211.31875 320.18125 211.31875C338.871875 211.31875 354.021875 195.78125 354.021875 176.6187500000001C354.021875 157.453125 338.871875 141.915625 320.18125 141.915625zM487.121875 730.571875C445.909375 730.571875 412.5 764.833125 412.5 807.0965625C412.5 849.36 445.909375 883.62125 487.121875 883.62125C528.334375 883.62125 561.74375 849.36 561.74375 807.0965625C561.74375 764.833125 528.334375 730.571875 487.121875 730.571875zM499.559375 819.850625V845.38C499.559375 852.4121875 493.990625 858.113125 487.121875 858.113125C480.253125 858.113125 474.684375 852.4121875 474.684375 845.38V819.850625H449.640625C442.865625 819.850625 437.3718750000001 814.140625 437.3718750000001 807.0965625C437.3718750000001 800.0528125 442.865625 794.3425 449.640625 794.3425H474.684375V768.813125C474.684375 761.7809374999999 480.253125 756.0803125 487.121875 756.0803125C493.990625 756.0803125 499.559375 761.7809374999999 499.559375 768.813125V794.3425H524.603125C531.3781250000001 794.3425 536.86875 800.0528125 536.86875 807.0965625C536.86875 814.140625 531.3781250000001 819.850625 524.603125 819.850625H499.559375z" />
    <glyph glyph-name="document-verified"
      unicode="&#xEA16;"
      horiz-adv-x="1000" d="M734.375 539.659375C866.18125 525.596875 968.690625 417.8093750000001 968.75 286.7062500000001C968.690625 155.6625 866.18125 47.9000000000001 734.375 32.084375H31.25V937.4053125C348.684375 937.4053125 507.4031249999999 937.4053125 507.4031249999999 937.4053125C507.4031249999999 937.4053125 562.503125 938.1571875 569.425 935.423125C574.040625 933.6003125 582.265625 926.57 594.103125 914.3325L701.81875 810.7453125C716.5749999999999 796.3362500000001 725.9875 783.9606249999999 730.0625 773.61875C736.171875 758.1053125 734.375 714.9071875 734.375 703.44C734.375 654.54375 734.375 599.95 734.375 539.659375zM81.15625 76.921875H544.1687499999999C482.6 124.959375 443.14375 198.425 443.14375 280.834375C443.14375 290.709375 443.8062500000001 300.38125 444.925 309.9625H141.4875V368.225H458.91875C466.490625 388.9343750000001 476.478125 408.540625 488.90625 426.484375H141.4875V484.74375H544.1375C583.353125 515.359375 631.61875 535.634375 684.46875 541.2874999999999V717.815H503.475V892.625H81.15625V76.921875zM550.065625 886.59375V759.4825000000001H681.734375L550.065625 886.59375zM708.03125 81.89375C823.4625 82.1593750000001 916.896875 172.3843750000001 917.171875 283.8531250000001C916.896875 395.384375 823.4625 485.609375 708.03125 485.8718749999999C592.5375 485.609375 499.10625 395.384375 498.83125 283.8531250000001C499.10625 172.3843750000001 592.5375 82.1593750000001 708.03125 81.89375zM617.1875 597.909375V541.328125H148.4375V597.909375H617.1875zM572.646875 277.7L614.946875 319.959375L687.228125 252.871875L802.89375 371.2L850.1281250000001 319.959375L687.228125 164.5375L572.646875 277.7z" />
    <glyph glyph-name="download"
      unicode="&#xEA17;"
      horiz-adv-x="1000" d="M833.3343749999999 135.4156250000001H156.25V31.25H833.3343749999999V135.4156250000001zM820.309375 591.865625C802.984375 608.28125 774.90625 608.28125 757.6125000000001 591.865625L537.6750000000001 383.246875V926.6625C537.6750000000001 949.9215625 517.78125 968.75 493.31875 968.75C468.85625 968.75 448.9625 949.9215625 448.9625 926.6625V383.246875L231.9825 589.0250000000001C214.6578125 605.46875 186.5796875 605.46875 169.2546875 589.0250000000001C151.93 572.5843749999999 151.9 545.9749999999999 169.2546875 529.53125L461.95625 251.9312500000001C462.971875 250.9343750000001 464.075 250.0281250000001 465.209375 249.1187500000001C465.71875 248.721875 466.25625 248.38125 466.79375 247.9812500000001C467.421875 247.55625 468.046875 247.0750000000001 468.675 246.646875C469.303125 246.2218750000001 469.959375 245.909375 470.61875 245.540625C471.215625 245.2 471.78125 244.859375 472.409375 244.546875C473.096875 244.178125 473.753125 243.8937500000001 474.409375 243.609375C475.06875 243.3250000000001 475.69375 243.0125 476.321875 242.75625C476.978125 242.5 477.6375 242.3031249999999 478.325 242.0750000000001C479.040625 241.81875 479.728125 241.565625 480.44375 241.365625C481.1625 241.1656250000001 481.7875 241.0250000000001 482.446875 240.88125C483.1625 240.740625 483.878125 240.5125000000001 484.625 240.3718750000001C485.403125 240.228125 486.178125 240.171875 486.95625 240.03125C487.6125 239.946875 488.240625 239.8312500000001 488.896875 239.775C491.796875 239.51875 494.753125 239.51875 497.65 239.775C498.3375 239.8312500000001 498.934375 239.946875 499.590625 240.03125C500.36875 240.171875 501.175 240.228125 501.9218749999999 240.3718750000001C502.66875 240.5125000000001 503.384375 240.7125 504.103125 240.88125C504.7875 241.053125 505.446875 241.19375 506.134375 241.365625C506.85 241.565625 507.5375 241.81875 508.253125 242.0750000000001C508.940625 242.275 509.56875 242.471875 510.25625 242.75625C510.94375 243.040625 511.540625 243.3250000000001 512.165625 243.609375C512.853125 243.921875 513.5125 244.20625 514.1687499999999 244.546875C514.796875 244.859375 515.3625 245.2 515.959375 245.540625C516.61875 245.9375 517.2750000000001 246.25 517.903125 246.646875C518.528125 247.0437500000001 519.1875 247.55625 519.8125 247.9812500000001C520.3218750000001 248.38125 520.859375 248.721875 521.396875 249.1187500000001C523.06875 250.425 524.621875 251.9312500000001 526.0875000000001 253.40625C526.59375 253.83125 527.13125 254.259375 527.640625 254.7125L820.340625 532.3125C837.665625 548.784375 837.665625 575.421875 820.340625 591.8375000000001L820.309375 591.865625z" />
    <glyph glyph-name="facebook"
      unicode="&#xEA18;"
      horiz-adv-x="1000" d="M959.375 1000H40.625C18.75 1000 0 981.25 0 959.375V43.75C0 18.75 18.75 0 40.625 0H531.25V375H406.25V531.25H531.25V656.25C531.25 784.375 612.5 850 728.125 850C784.375 850 831.25 843.75 843.75 843.75V709.375H762.5C700 709.375 684.375 678.125 684.375 634.375V531.25H840.625L809.375 375H684.375L687.5 0H956.25C978.125 0 996.875 18.75 996.875 40.625V959.375C1000 981.25 981.25 1000 959.375 1000z" />
    <glyph glyph-name="filter"
      unicode="&#xEA19;"
      horiz-adv-x="850" d="M548.14 542.6045V12.5L301.4745 196.0699999999999L284.486 542.164L34.2682 848.886V987.5H811.37V848.4715L548.14 542.6045zM477.4935 161.59V575.797L740.725 881.664V906.5605H104.914V880.8225L353.5825 575.9995L369.997 241.5899999999999L477.4935 161.59z" />
    <glyph glyph-name="give-letter"
      unicode="&#xEA1A;"
      horiz-adv-x="1000" d="M366.2468750000001 356.715625C529.20625 357.721875 646.94375 357.721875 730.3125 356.715625C737.8843750000001 356.621875 742.30625 356.715625 747.803125 363.684375C753.296875 370.65625 752.8468750000001 374.4656250000001 752.95625 385.7125C753.03125 393.2125 753.03125 516.4625 752.95625 765.7049999999999H589.50625V928.256875H307.9065625V507.64375L336.0125 536.31875V574.603125H533.5875V534.44375H409.125L416.28125 527.053125C426.375 516.6375 428.440625 503.95 428.440625 489.19375C428.440625 474.459375 419.221875 456.396875 409.125 445.9812500000001L356.14375 389.7000000000001C363.1125 378.5500000000001 365.278125 370.134375 366.2468750000001 356.715625zM395.05625 302.3125L413 305.6156249999999C424.0093750000001 307.265625 427.2625 311.00625 431.934375 317.584375H360.40625C349.340625 287.203125 323.125 265 283.183125 265V305.6156249999999C307.8003125 305.6156249999999 327.64375 321.3812499999999 327.64375 346.796875C327.64375 359.10625 321.496875 372.475 313.06875 381.190625L301.3725 393.271875C352.015625 445.178125 378.615625 472.4562500000001 381.178125 475.1C385.015625 479.0656250000001 388.909375 484.890625 388.909375 490.484375C388.909375 496.103125 387.89375 500.078125 384.053125 504.046875L371.5375 515.3968749999999L265.6709375 406.890625L237.8234375 434.84375L268.0840625 466.3000000000001V518.15C240.315625 507.621875 226.12125 477.9875 226.12125 445.7218750000001V174.634375H395.05625V302.3125zM226.12125 71.634375H395.38125V133.7000000000001H226.12125V71.634375zM628.60625 900.965V805.57875H724.1062499999999L628.60625 900.965zM268.4253125 968.7396875H588.034375C601.915625 968.8434375 611.1281250000001 968.1565625 615.6781249999999 966.6790625C620.228125 965.2015625 626.6843749999999 960.0040625 635.040625 951.086875C710.28125 876.434375 752.41875 834.24875 761.45625 824.5293750000001C775.009375 809.950625 784.9343749999999 795.795625 788.196875 789.106875C791.4593749999999 782.4178125 792.70625 767.64125 791.9375 744.7765625V376.1375000000001C791.203125 356.84375 787.5593749999999 342.06875 782.696875 335.1062500000001C775.4 324.6624999999999 763.2218750000001 317.171875 755.4031249999999 317.171875H475.015625C469.540625 295.265625 455.253125 278.8531250000001 434.6375 270.784375V31.25H187.5V453.390625C187.5 504.69375 222.1678125 549.859375 268.4253125 561.45625V968.7396875zM405.7 789.9153125C446.753125 789.9153125 472.125 756.161875 472.125 718.2609375H339.278125C339.278125 756.161875 364.646875 789.9153125 405.7 789.9153125zM402.98125 789.764375C381.8250000000001 789.764375 364.671875 807.4809375 364.671875 829.3328125C364.671875 851.184375 381.8250000000001 868.9115625 402.98125 868.9115625C424.140625 868.9115625 441.29375 851.184375 441.29375 829.3328125C441.29375 807.4809375 424.140625 789.764375 402.98125 789.764375zM339.278125 658.13125V690.2490625H724.665625V658.13125H339.278125zM339.278125 606.0375V638.15625H721.6375V606.0375H339.278125z" />
    <glyph glyph-name="img-preview"
      unicode="&#xEA1B;"
      horiz-adv-x="969.6969696969697" d="M289.9003030303031 631.8090909090909C289.9003030303031 659.4090909090909 266.0590909090909 681.8181818181818 236.6321212121213 681.8181818181818C207.2054545454546 681.8181818181818 183.3642424242424 659.4090909090909 183.3642424242424 631.8090909090909C183.3642424242424 604.2121212121212 207.2054545454546 581.8030303030303 236.6321212121213 581.8030303030303C266.0590909090909 581.8030303030303 289.9003030303031 604.1848484848485 289.9003030303031 631.8090909090909zM167.9306060606061 319.9212121212121C167.9306060606061 319.9212121212121 167.4015151515152 319.2575757575757 166.6666666666667 318.1818181818182H803.0303030303031C802.9727272727273 318.2363636363636 802.9424242424243 318.2909090909091 802.8818181818183 318.3757575757576L585.6969696969697 594.5242424242424C585.6969696969697 594.5242424242424 559.9424242424243 627.2575757575758 534.2212121212121 594.5242424242424L399.8181818181819 423.6363636363637L350.3696969696971 486.5333333333333C350.3696969696971 486.5333333333333 324.6181818181818 519.2636363636364 298.8957575757576 486.5333333333333L167.9306060606061 319.9484848484848V319.9212121212121z" />
    <glyph glyph-name="increase-text"
      unicode="&#xEA1C;"
      horiz-adv-x="1000" d="M186.28875 535.096875V433.725H134.6090625V535.096875H31.25V585.784375H134.6090625V687.15625H186.28875V585.784375H289.6478125V535.096875H186.28875zM265.7259375 216.678125L320.2312500000001 224.103125L577.115625 875H662.40625L914.75 224.103125L968.75 216.678125V154.3125H757.79375V216.678125L813.30625 226.084375L764.859375 358.7375000000001H470.628125L420.6625 226.084375L476.178125 216.678125V154.3125H265.7259375V216.678125zM501.4125 440.409375H734.578125L620.51875 749.770625H617.4906249999999L501.4125 440.409375z" />
    <glyph glyph-name="instagram"
      unicode="&#xEA1D;"
      horiz-adv-x="1000" d="M500 909.90625C633.5 909.90625 649.3125 909.40625 702.03125 907C758.9375 904.40625 811.75 893 852.375 852.375C893 811.75 904.40625 758.9375 907 702.03125C909.40625 649.3125 909.90625 633.5 909.90625 500C909.90625 366.5 909.40625 350.6875 907 297.96875C904.40625 241.0625 893 188.25 852.375 147.625C811.75 107 758.9375 95.59375 702.03125 93C649.3125 90.59375 633.5 90.09375 500 90.09375C366.5 90.09375 350.6875 90.59375 297.96875 93C241.0625 95.59375 188.25 107 147.625 147.625C107 188.25 95.59375 241.0625 93 297.96875C90.59375 350.6875 90.09375 366.5 90.09375 500C90.09375 633.5 90.59375 649.3125 93 702.03125C95.59375 758.9375 107 811.75 147.625 852.375C188.25 893 241.0625 904.40625 297.96875 907C350.6875 909.40625 366.5 909.90625 500 909.90625zM500 1000C364.21875 1000 347.1875 999.4375 293.84375 997C212.59375 993.28125 141.21875 973.375 83.90625 916.09375C26.625 858.8125 6.71875 787.4375 3 706.15625C0.5625 652.8125 0 635.78125 0 500C0 364.21875 0.5625 347.1875 3 293.84375C6.71875 212.59375 26.625 141.21875 83.90625 83.90625C141.1875 26.625 212.5625 6.71875 293.84375 3C347.1875 0.5625 364.21875 0 500 0C635.78125 0 652.8125 0.5625 706.15625 3C787.40625 6.71875 858.78125 26.625 916.09375 83.90625C973.375 141.1875 993.28125 212.5625 997 293.84375C999.4375 347.1875 1000 364.21875 1000 500C1000 635.78125 999.4375 652.8125 997 706.15625C993.28125 787.40625 973.375 858.78125 916.09375 916.09375C858.8125 973.375 787.4375 993.28125 706.15625 997C652.8125 999.4375 635.78125 1000 500 1000zM499.996875 756.75C358.184375 756.75 243.248125 641.78125 243.248125 500C243.248125 358.1875 358.215625 243.25 499.996875 243.25C641.7781249999999 243.25 756.746875 358.21875 756.746875 500C756.746875 641.8125 641.809375 756.75 499.996875 756.75zM499.996875 333.34375C407.934375 333.34375 333.340625 407.96875 333.340625 500C333.340625 592.0625 407.965625 666.65625 499.996875 666.65625C592.059375 666.65625 666.6531249999999 592.03125 666.6531249999999 500C666.6531249999999 407.9375 592.059375 333.34375 499.996875 333.34375zM826.909375 766.90625C826.909375 733.7690625 800.046875 706.90625 766.909375 706.90625C733.7718749999999 706.90625 706.909375 733.7690625 706.909375 766.90625C706.909375 800.0434375 733.7718749999999 826.90625 766.909375 826.90625C800.046875 826.90625 826.909375 800.0434375 826.909375 766.90625z" />
    <glyph glyph-name="list"
      unicode="&#xEA1E;"
      horiz-adv-x="1000" d="M437.253125 735.8153125H740.3156250000001V639.9781250000001H437.253125V735.8153125zM437.253125 544.14375H740.3156250000001V448.3093750000001H437.253125V544.14375zM437.253125 352.471875H740.3156250000001V256.6375H437.253125V352.471875zM437.253125 352.471875H740.3156250000001V256.6375H437.253125V352.471875zM235.2128125 735.8153125H336.234375V639.9781250000001H235.2128125V735.8153125zM235.2128125 544.14375H336.234375V448.3093750000001H235.2128125V544.14375zM235.2128125 352.471875H336.234375V256.6375H235.2128125V352.471875zM864.65 968.75H104.7184375C81.26375 968.75 62.5 947.9165625 62.5 921.875V78.125C62.5 57.2906250000001 81.26375 31.25 104.7184375 31.25H864.65C883.4156250000001 31.25 906.86875 57.2906250000001 906.86875 78.125V921.875C906.86875 947.9165625 883.4156250000001 968.75 864.65 968.75zM823.98125 133.571875H150.485625V875.9525H823.98125V133.571875z" />
    <glyph glyph-name="login-fill"
      unicode="&#xEA1F;"
      horiz-adv-x="1000" d="M482.66875 623.5999999999999C383.4937500000001 623.5999999999999 303.0959375000001 700.865 303.0959375000001 796.1753125C303.0959375000001 891.485625 383.4937500000001 968.75 482.66875 968.75C581.84375 968.75 662.240625 891.485625 662.240625 796.1753125C662.240625 700.865 581.84375 623.5999999999999 482.66875 623.5999999999999zM735.859375 521.4781250000001C767.8249999999999 521.4781250000001 793.75 496.5625 793.75 465.8781250000001V114.040625C705.69375 61.86875 602.415625 31.25 491.4375 31.25C379.753125 31.25 275.8378125 62.240625 187.5 114.990625V465.8781250000001C187.5 496.5968750000001 213.425625 521.4781250000001 245.3559375 521.4781250000001H735.859375z" />
    <glyph glyph-name="login"
      unicode="&#xEA20;"
      horiz-adv-x="1000" d="M483.33125 643.0250000000001C559.334375 643.0250000000001 620.878125 704.16875 620.878125 779.5065625C620.878125 854.844375 559.334375 915.9878125 483.33125 915.9878125C407.33125 915.9878125 345.7875 854.844375 345.7875 779.5065625C345.7875 704.16875 407.33125 643.0250000000001 483.33125 643.0250000000001zM483.33125 590.2625C378.265625 590.2625 293.0246875 674.953125 293.0246875 779.5065625C293.0246875 884.0615625 378.265625 968.75 483.33125 968.75C588.396875 968.75 673.640625 884.0615625 673.640625 779.5065625C673.640625 674.953125 588.396875 590.2625 483.33125 590.2625zM740.9312500000001 467.796875C740.9312500000001 482.15 729.109375 493.8875 714.4625 493.8875H266.69625C252.0659375 493.8875 240.2621875 482.1656250000001 240.2621875 467.796875V151.61875C316.290625 107.615625 402.128125 84.0125000000001 491.3375 84.0125000000001C579.934375 84.0125000000001 665.19375 107.303125 740.9312500000001 150.784375V467.796875zM714.4625 546.6500000000001C758.1687499999999 546.6500000000001 793.69375 511.371875 793.69375 467.796875V120.984375L781.090625 113.265625C694.071875 59.9656250000001 594.73125 31.25 491.3375 31.25C387.28125 31.25 287.323125 60.31875 200.0234375 114.2125000000001L187.5 121.94375V467.796875C187.5 511.3875 223.0078125 546.6500000000001 266.69625 546.6500000000001H714.4625z" />
    <glyph glyph-name="logout"
      unicode="&#xEA21;"
      horiz-adv-x="1000" d="M108.6696875 133.859375H475.9375C492.196875 128.2562499999999 504.184375 114.384375 504.184375 97.8875000000001C504.184375 78.003125 486.80625 61.9437499999999 465.475 61.9437499999999H69.96C48.639375 61.9437499999999 31.25 77.99375 31.25 97.8875000000001V932.8075C31.25 952.690625 48.6265625 968.75 69.96 968.75H465.475C486.784375 968.75 504.184375 952.6828125 504.184375 932.8075C504.184375 912.9240625 486.80625 896.8646875 465.475 896.8646875H108.6696875V133.859375zM957.2125 473.6L757.59375 287.525C742.2687500000001 273.25 717.421875 273.2625 702.015625 287.5C686.5124999999999 301.8250000000001 686.5124999999999 325.15625 701.984375 339.490625L834.34375 462.859375H384.5406250000001C362.8125 462.859375 345.14375 479.2593750000001 345.14375 499.578125C345.14375 519.9 362.8125 536.3 384.5406250000001 536.3H834.3468750000001L702.015625 659.6375C686.5124999999999 673.965625 686.5124999999999 697.333125 701.9968749999999 711.6421875000001C717.34375 725.8959375 742.1875 725.9078125000001 757.596875 711.630625L957.20625 525.59375C972.634375 511.45625 972.559375 487.809375 957.2125 473.6z" />
    <glyph glyph-name="m-arrow-down"
      unicode="&#xEA22;"
      horiz-adv-x="1000" d="M500 302.63125L187.5 622.25625L260.9375 697.3684375L500 453.3875L739.0625 697.3684375L812.5 622.25625L500 302.63125z" />
    <glyph glyph-name="m-arrow-left"
      unicode="&#xEA23;"
      horiz-adv-x="1000" d="M302.6275 500L622.253125 812.5L697.365625 739.0625L453.384375 500L697.365625 260.9375L622.253125 187.5L302.6275 500z" />
    <glyph glyph-name="m-arrow-right"
      unicode="&#xEA24;"
      horiz-adv-x="1000" d="M697.365625 500L377.740625 187.5L302.6275 260.9375L546.609375 500L302.6275 739.0625L377.740625 812.5L697.365625 500z" />
    <glyph glyph-name="m-arrow-up"
      unicode="&#xEA25;"
      horiz-adv-x="1000" d="M500 697.3684375L812.5 377.7437500000001L739.0625 302.63125L500 546.6125L260.9375 302.63125L187.5 377.7437500000001L500 697.3684375z" />
    <glyph glyph-name="messenger"
      unicode="&#xEA26;"
      horiz-adv-x="1000" d="M551.4375 412.240625L425.125 537.23125L181.818125 409.0906250000001L448.5625 678.66875L574.875 553.678125L818.18125 681.8187499999999L551.4375 412.240625zM494.86875 1000C217.044375 1000 0 792.8 0 537.1500000000001C0 391.75 42.6365625 262 195.0909375 177.15V0L358.571875 93.7000000000001C404.359375 81.0999999999999 448.775 74.35 498.984375 74.35C776.80625 74.35 1000 281.55 1000 537.1500000000001C1000 792.8 772.7406249999999 1000 494.86875 1000z" />
    <glyph glyph-name="moneybox"
      unicode="&#xEA27;"
      horiz-adv-x="1000" d="M115.7015625 498.940625C105.504375 502.3125 93.815625 507.45625 81.9778125 514.859375C50.90625 534.2875 31.25 562.8875 31.25 600.565625C31.25 637.7 52.5153125 671 87.5559375 684.90625C101.8446875 690.578125 118.2171875 684.05625 124.125 670.3375C130.0325 656.621875 123.2384375 640.90625 108.9496875 635.234375C95.7021875 629.975 87.2425 616.7281250000001 87.2425 600.565625C87.2425 583.059375 96.0959375 570.1781249999999 112.540625 559.896875C118.706875 556.0406250000001 124.976875 553.10625 130.4371875 551.034375C147.8496875 595 176.431875 631.646875 214.6884375 659.04375C290.685625 713.45 380.096875 741.9 488.434375 741.9C523.975 741.9 558.7875 738.7559375000001 592.35625 732.6043749999999C625.6625 787.13125 675.703125 817.4965625 740.3125 832.4043750000001C762.25625 837.468125 781.103125 816.7990625 772.96875 796.5875C752.8343749999999 746.561875 744.7906250000001 720.1784375 743.0718750000001 691.2409375C817.146875 661.2125 862.0124999999999 604.425 876.0218749999999 539.48125C876.046875 539.48125 886.8625 539.48125 908.4625 539.48125C941.478125 539.48125 968.75 514.325 968.75 482.8375V393.671875C968.75 362.203125 941.4625 337.115625 908.4625 337.115625H876.134375C871.9312500000001 337.115625 872.24375 337.384375 868.859375 330.8375C844.615625 284.328125 807.55625 247.2875 759.896875 222.6781249999999L768.24375 202.3718749999999C780.925 171.8874999999999 764.253125 137.884375 731.934375 126.6031250000001L668.109375 104.39375C636.371875 93.296875 600.653125 108.0437500000001 588.834375 136.9749999999999C588.08125 138.6031250000001 586.825 141.4031249999999 585.221875 145.084375C582.565625 151.1875 579.909375 157.56875 577.415625 163.9468750000001C576.696875 165.7875 576 167.6 575.34375 169.353125C571.1968750000001 169.01875 555.96875 167.521875 551.2781249999999 167.1062500000001C531.2624999999999 165.334375 511.825 164.3781250000001 488.434375 164.3781250000001C462.809375 164.3781250000001 441.8875 166.275 421.38125 169.7468749999999C416.96875 170.49375 406.1375 172.540625 402.975 173.146875C402.296875 171.484375 401.996875 170.753125 400.865625 167.9906249999999C397.88125 160.7125000000001 395.0375 153.828125 392.196875 146.978125C389.1656250000001 139.68125 389.1656250000001 139.68125 388.4375 137.94375C376.08125 108.0281250000001 340.40625 93.290625 308.8096875 104.378125L244.800625 126.6218750000001C212.5796875 137.90625 195.96125 171.890625 208.9396875 203.14375C209.5853125 204.565625 210.7484375 207.1687500000001 212.254375 210.6062500000001C214.7678125 216.3468750000001 217.28 222.2468749999999 219.6115625 227.95C220.5984375 230.3718750000001 220.5984375 230.3718750000001 221.5684375 232.8C223.0640625 236.5593750000001 224.3846875 240.01875 225.4881250000001 243.0750000000001C158.96625 291.96875 114.38375 353.46875 111.115625 425.2625C109.935625 451.153125 111.5165625 475.778125 115.7015625 498.940625zM704.453125 210.76875C699.640625 223.51875 700.109375 238.065625 709.778125 251.484375C714.8656249999999 258.546875 722.025 264.328125 730.9718750000001 268.796875C769.5375 288.0968750000001 799.253125 317.41875 818.7468749999999 354.8125C830.5281249999999 377.6031250000001 846.121875 390.86875 876.134375 390.86875H908.4625C911.06875 390.86875 912.75625 392.421875 912.75625 393.671875V482.8375C912.75625 484.15 911.040625 485.7312499999999 908.4625 485.7312499999999H876.134375C848.5374999999999 485.7312499999999 826.45625 499.228125 822.44375 522.1375C812.890625 577.453125 774.2875 625.3375 705.88125 647.3031249999999C694.640625 650.9125 686.9875 660.925 686.771875 672.3C686.18125 703.380625 689.8 728.0331249999999 700.490625 761.3071875C671.15 745.9734375 648.709375 723.4246875 632.528125 690.60625C626.8843750000001 679.159375 613.68125 673.046875 600.834375 675.9375C565 683.996875 527.253125 688.1490625 488.434375 688.1490625C392.153125 688.1490625 314.484375 663.434375 248.1653125 615.9593749999999C192.9784375 576.4375 163.224375 511.65625 167.0546875 427.6125C169.4603125 374.76875 204.8759375 325.9156250000001 257.4565625 287.2312500000001C259.6103125 285.7312500000001 261.8840625000001 284.0875000000001 264.07625 282.2843750000001C280.095 269.09375 287.1190625000001 250.2875 279.063125 227.346875C277.5984375000001 223.1999999999999 275.8581250000001 218.6062500000001 273.8796875000001 213.63125C272.80875 210.953125 272.80875 210.953125 271.7334375000001 208.3093750000001C269.2225 202.1687500000001 266.5465625 195.884375 263.871875 189.7781250000001C262.2646875 186.1062500000001 261.0065625 183.2906250000001 260.614375 182.4625C259.8284375 180.5687499999999 261.00375 178.1625 263.9256250000001 177.140625L327.9500000000001 154.890625C331.484375 153.65 335.353125 155.25 336.425 157.84375C337.171875 159.63125 337.171875 159.63125 340.178125 166.865625C342.99375 173.65625 345.8125 180.475 348.4375 186.878125C350.278125 191.3718749999999 350.278125 191.3718749999999 351.7906250000001 195.0906249999999C352.825 197.6 353.85625 199.8875000000001 354.93125 202.0187500000001C363.221875 218.425 376.1812500000001 227.75 394.546875 228.040625C400.065625 228.1281250000001 405.140625 227.4875 412.825 226.0750000000001C411.2125 226.3718750000001 426.271875 223.5 431.1062500000001 222.6812500000001C448.515625 219.7312500000001 466.20625 218.128125 488.434375 218.128125C510 218.128125 527.74375 219.003125 546.1312499999999 220.6312499999999C550.35625 221.003125 565.865625 222.5281249999999 569.3468750000001 222.8125C578.09375 223.525 584.11875 223.6125 590.234375 222.7281250000001C609.090625 220.0062499999999 619.95625 209.06875 626.68125 191.19375C627.803125 188.115625 628.7875 185.51875 629.8343749999999 182.8406249999999C632.0687499999999 177.128125 634.48125 171.3375 636.890625 165.796875C638.3312500000001 162.4875 639.4375 160.0281249999999 640.490625 157.68125C641.490625 155.2375000000001 645.353125 153.64375 648.9875000000001 154.9125L712.828125 177.128125C715.853125 178.1843749999999 717.021875 180.565625 716.203125 182.540625L706.515625 206.1062500000001C705.80625 207.478125 705.10625 209.03125 704.453125 210.76875zM733.184375 462.221875C712.140625 462.221875 695.1125000000001 477.884375 695.1125000000001 497.2C695.1125000000001 516.48125 712.140625 532.14375 733.184375 532.14375C754.16875 532.14375 771.1375 516.48125 771.1375 497.2C771.159375 477.9031249999999 754.16875 462.221875 733.184375 462.221875zM524.4 760.585H468.409375C468.409375 811.065625 423.34375 852.4990625 367.24375 852.4990625C311.070625 852.4990625 266.08 811.1075000000001 266.08 760.585C266.08 746.8159375 269.4153125000001 733.631875 275.791875 721.6034374999999L225.8896875 697.224375C215.5340625 716.7581250000001 210.0875 738.2890625 210.0875 760.585C210.0875 841.316875 280.666875 906.25 367.24375 906.25C453.740625 906.25 524.4 841.2831249999999 524.4 760.585z" />
    <glyph glyph-name="ok"
      unicode="&#xEA28;"
      horiz-adv-x="1000" d="M324 89.953125C321.453125 57.425 297.03375 33.240625 265.625 33.240625H89.84375C56.640625 33.240625 31.25 60.265625 31.25 95.6062500000001V532.178125C31.25 567.51875 56.640625 594.546875 89.84375 594.546875H265.625C289.3350000000001 594.546875 309.0612500000001 580.765625 318.403125 560.015625C377.6812500000001 610.884375 443.159375 679.9875 470.703125 758.78L500 927.171875C501.953125 935.4875 505.859375 943.803125 513.671875 947.9609375C541.015625 966.67125 560.546875 968.75 587.890625 968.75C628.90625 968.75 675.78125 931.3296875 675.78125 750.464375C675.78125 704.7284375 667.96875 650.678125 654.296875 594.546875H851.5625C919.921875 594.546875 968.75 559.203125 968.75 492.678125C968.75 463.5749999999999 951.171875 434.46875 925.78125 413.68125C937.5 399.128125 945.3125 378.340625 945.3125 361.709375C945.3125 328.446875 921.875 301.41875 900.390625 284.7875C906.25 272.315625 910.15625 255.684375 910.15625 236.9718750000001C910.15625 199.553125 886.71875 166.290625 849.609375 151.7375C851.5625 145.5 851.5625 137.1843750000001 851.5625 128.86875C851.5625 85.2125 808.59375 35.3187499999999 750 35.3187499999999H470.703125C433.59375 35.3187499999999 400.390625 51.95 369.140625 68.5812500000001C354.240625 77.1218750000001 338.6656250000001 84.946875 324 89.953125zM324.21875 155.896875C349.609375 149.6593750000001 373.046875 137.1843750000001 396.484375 124.7125C421.875 110.159375 449.21875 97.6875 470.703125 97.6875H750C773.4375 97.6875 792.96875 110.159375 792.96875 128.86875C792.96875 162.1312499999999 783.203125 170.446875 791.015625 185C798.828125 197.4749999999999 843.75 199.553125 849.609375 230.7375000000001C849.609375 232.815625 849.609375 234.8937500000001 849.609375 236.9718750000001C849.609375 274.39375 828.125 282.709375 835.9375 305.578125C841.796875 324.2874999999999 886.71875 324.2874999999999 886.71875 363.7875C886.71875 401.20625 857.421875 409.521875 863.28125 430.3125C869.140625 449.021875 908.203125 453.18125 908.203125 492.678125C908.203125 517.625 880.859375 532.178125 851.5625 532.178125H587.890625C572.265625 532.178125 558.59375 546.73125 558.59375 563.3625C558.59375 579.99375 572.265625 594.546875 587.890625 594.546875H595.703125C611.328125 652.7562499999999 619.140625 704.7284375 619.140625 750.464375C619.140625 868.9621875 595.703125 906.3828125 589.84375 906.3828125C574.21875 906.3828125 566.40625 906.3828125 556.640625 902.225L529.296875 746.3065624999999C527.34375 746.3065624999999 527.34375 744.2275 527.34375 742.1487500000001C490.234375 634.046875 396.484375 544.653125 324.21875 486.4437499999999V155.896875zM89.84375 532.178125V95.6062500000001H265.625V532.178125H89.84375z" />
    <glyph glyph-name="pause"
      unicode="&#xEA29;"
      horiz-adv-x="1000" d="M93.75 906.25H246.09375V93.75H93.75V906.25zM753.90625 906.25H906.25V93.75H753.90625V906.25z" />
    <glyph glyph-name="play"
      unicode="&#xEA2A;"
      horiz-adv-x="1000" d="M841.396875 500.015625L156.25 968.75V31.25L841.396875 500.015625z" />
    <glyph glyph-name="question"
      unicode="&#xEA2B;"
      horiz-adv-x="1000" d="M500 968.75C241.25 968.75 31.25 758.75 31.25 500C31.25 241.25 241.25 31.25 500 31.25C758.75 31.25 968.75 241.25 968.75 500C968.75 758.75 758.75 968.75 500 968.75zM500 125C293.28125 125 125 293.28125 125 500C125 706.71875 293.28125 875 500 875C706.71875 875 875 706.71875 875 500C875 293.28125 706.71875 125 500 125zM448.8062500000001 353.928125C449.0625 391.628125 452.240625 417.771875 458.60625 432.8031249999999C465.009375 447.9250000000001 481.38125 467.16875 507.20625 490.384375C532.084375 519.784375 549.771875 542.3625 560.221875 558.0375C570.096875 572.85 575.059375 590.809375 575.059375 612.078125C575.059375 637.275 568.4875000000001 656.234375 555.5124999999999 669.325C542.55 682.403125 523.8000000000001 689.019375 498.878125 689.019375C477.271875 689.019375 459.15 683.2125 444.2781250000001 671.61875C429.8875 660.403125 422.69375 643.921875 422.69375 621.55625L416.225 615.0875000000001H344.94375L339.15625 618.6625L337.3375000000001 623.7125C336.54375 666.33125 351.646875 700.8165625 382.5 726.615C413.04375 752.1565625 451.928125 764.8984375 498.878125 764.8984375C550.1906250000001 764.8984375 590.428125 751.6828125 619.28125 725.08125C648.240625 698.38 662.690625 661.190625 662.690625 613.9749999999999C662.690625 580.10625 653.4124999999999 549.040625 634.8937500000001 520.9375C616.796875 493.46875 592.921875 465.4343749999999 563.4 436.93125C550.715625 424.009375 543.15 412.6281250000001 540.578125 403.015625C537.85 392.8125 536.4375 376.365625 536.4375 353.88125L529.965625 347.4125H455.275L448.8062500000001 353.928125zM532.240625 235.1H454.515625L448.046875 241.571875V320.4343750000001L454.515625 326.903125H532.240625L538.7125000000001 320.4343750000001V241.571875L532.240625 235.1z" />
    <glyph glyph-name="reading"
      unicode="&#xEA2C;"
      horiz-adv-x="1000" d="M765.9875000000001 680.378125L771.65 678.09375L769.8343749999999 441.053125C824.88125 379.33125 855.09375 301.63125 855.09375 221.34375V203.946875L851.7624999999999 200.7624999999999L673.984375 201.6750000000001L492.378125 31.25H487.715625L308.4428125 200.7624999999999H128.3303125L125 203.946875V221.34375C125 301.63125 155.225 379.353125 209.4765625 439L208.4428125 678.09375L214.1059375 680.378125L361.515625 542.028125C402.671875 556.584375 445.83125 563.965625 490.046875 563.965625C534.2750000000001 563.965625 577.4375 556.584375 618.565625 542.03125L765.9875000000001 680.378125zM708.7281250000001 238.740625H814.1500000000001C811.0875 289.00625 794.8 337.5625 767.053125 380.190625L766.671875 293.11875L708.7281250000001 238.740625zM165.94375 238.740625H271.3659375L213.4346875 293.11875L213.0553125 380.190625C185.293125 337.5625 169.005 289.00625 165.94375 238.740625zM471.509375 385.15L249.2165625 593.746875L249.621875 500.659375L471.509375 292.43125V385.15zM490.046875 525.9875C455.6 525.9875 421.990625 520.928125 389.740625 511.09375L490.046875 416.9625L590.365625 511.10625C558.11875 520.940625 524.5062499999999 525.9875 490.046875 525.9875zM730.078125 407.6687500000001L730.8781250000001 593.746875L508.6000000000001 385.15V199.8218750000001L730.078125 407.6687500000001zM508.6000000000001 158.396875V100.1531249999999L729.646875 307.59375L729.8562499999999 358.2375L512.759375 154.5062499999999L508.6000000000001 158.396875zM471.509375 199.453125V248.91875L468.459375 246.0718750000001L249.83125 451.2406249999999L250.459375 307.59375L471.509375 100.1531249999999V155.9406250000001L468.459375 153.08125L343.3625 270.490625L369.59375 295.0968750000001L471.509375 199.453125zM623.88125 364.803125L536.2624999999999 283.20625V365.415625L623.88125 447.0125000000001V364.803125zM490.31875 604.29375V624.990625C579.44375 624.990625 651.83125 692.92 651.83125 776.178125C651.83125 859.43375 579.446875 927.3565625 490.31875 927.3565625C401.1875 927.3565625 328.803125 859.43375 328.803125 776.178125C328.803125 692.92 401.190625 624.990625 490.31875 624.990625V604.29375zM490.31875 604.29375V583.596875C377.459375 583.596875 285.51 669.884375 285.51 776.178125C285.51 882.4703125 377.45625 968.75 490.31875 968.75C603.178125 968.75 695.125 882.4703125 695.125 776.178125C695.125 669.884375 603.1750000000001 583.596875 490.31875 583.596875V604.29375z" />
    <glyph glyph-name="search"
      unicode="&#xEA2D;"
      horiz-adv-x="1000" d="M968.75 152.6374999999999L767.009375 348.603125C809.1 411.821875 833.734375 487.515625 833.734375 568.8875C833.734375 789.371875 653.7375 968.75 432.4937500000001 968.75C211.2471875 968.75 31.25 789.371875 31.25 568.8875C31.25 348.4031250000001 211.2471875 169.025 432.4937500000001 169.025C514.14375 169.025 590.0999999999999 193.578125 653.5375 235.521875L855.7718749999999 31.25L968.75 152.6374999999999zM111.4984375 568.8875C111.4984375 745.2671875 255.504375 888.7775 432.4937500000001 888.7775C609.4812499999999 888.7775 753.4875 745.2671875 753.4875 568.8875C753.4875 392.5093750000001 609.4812499999999 248.9968750000001 432.4937500000001 248.9968750000001C255.504375 248.9968750000001 111.4984375 392.5093750000001 111.4984375 568.8875z" />
    <glyph glyph-name="sound"
      unicode="&#xEA2E;"
      horiz-adv-x="1000" d="M277.7090625 671.875L647.396875 906.25V125L277.7090625 359.375H31.25V671.875H277.7090625zM734.375 750H812.5V281.25H734.375V750zM890.625 906.25H968.75V125H890.625V906.25z" />
    <glyph glyph-name="store"
      unicode="&#xEA2F;"
      horiz-adv-x="1000" d="M487.24375 467.7H273.596875C225.7653125 467.7 187.5 427.215625 187.5 376.615625V312.51875C187.5 261.915625 225.7653125 221.4343749999999 273.596875 221.4343749999999H487.24375C535.0749999999999 221.4343749999999 573.340625 261.915625 573.340625 312.51875V376.615625C573.340625 427.215625 535.0749999999999 467.7 487.24375 467.7zM525.509375 312.51875C525.509375 288.90625 509.565625 272.0375 487.24375 272.0375H273.596875C251.275625 272.0375 235.3315625 288.90625 235.3315625 312.51875V376.615625C235.3315625 400.2281250000001 251.275625 417.0968750000001 273.596875 417.0968750000001H487.24375C509.565625 417.0968750000001 525.509375 400.2281250000001 525.509375 376.615625V312.51875zM965.5625 636.371875L920.91875 886.0090625C917.728125 899.503125 908.1625 906.25 898.596875 906.25H101.403125C88.648125 906.25 79.0815625 896.1296875 79.0815625 886.0090625L40.81625 680.2281250000001C34.43875 663.359375 31.25 646.49375 31.25 629.625C31.25 579.021875 56.7603125 531.79375 98.214375 508.18125V160.7125000000001C98.214375 120.2312500000001 130.1021875 86.4968750000001 168.3671875 86.4968750000001H614.796875C627.5500000000001 86.4968750000001 640.30625 96.615625 640.30625 113.484375C640.30625 113.484375 640.30625 113.484375 640.30625 116.859375C640.30625 116.859375 640.30625 116.859375 640.30625 120.2312500000001V423.84375H767.85625V120.2312500000001C767.85625 120.2312500000001 767.85625 120.2312500000001 767.85625 116.859375C767.85625 116.859375 767.85625 116.859375 767.85625 113.484375C767.85625 99.990625 777.4250000000001 86.4968750000001 793.36875 86.4968750000001H838.009375C876.275 86.4968750000001 908.1625 120.2312500000001 908.1625 160.7125000000001V514.928125C943.240625 538.540625 965.5625 579.021875 968.75 622.878125C968.75 626.253125 968.75 633 965.5625 636.371875zM857.14375 164.0875000000001C857.14375 150.59375 847.5749999999999 140.4718750000001 834.8218750000001 140.4718750000001H812.5V447.459375C812.5 460.953125 802.9343749999999 474.4468750000001 786.990625 474.4468750000001H611.60625C598.853125 474.4468750000001 586.096875 464.3249999999999 586.096875 447.459375V140.4718750000001H168.3671875C155.6121875 140.4718750000001 146.0459375 150.59375 146.0459375 164.0875000000001V491.3125000000001C152.4234375 491.3125000000001 158.8009375 487.9406250000001 165.1784375 487.9406250000001C209.8215625 487.9406250000001 251.275625 511.553125 276.785625 548.6625C302.2959375 511.553125 340.5625 487.9406250000001 388.39375 487.9406250000001C436.225 487.9406250000001 474.490625 511.553125 500 548.6625C525.509375 511.553125 563.775 487.9406250000001 611.60625 487.9406250000001C659.4375 487.9406250000001 697.703125 511.553125 723.215625 548.6625C748.725 511.553125 786.990625 487.9406250000001 834.8218750000001 487.9406250000001C844.3874999999999 487.9406250000001 853.953125 487.9406250000001 860.33125 491.3125000000001V164.0875000000001H857.14375zM917.728125 633C917.728125 582.3968749999999 879.465625 541.9156250000001 831.63125 541.9156250000001C783.8000000000001 541.9156250000001 745.534375 582.3968749999999 745.534375 633C745.534375 646.49375 735.96875 659.9875 720.025 659.9875C704.08125 659.9875 694.515625 649.865625 694.515625 633C694.515625 582.3968749999999 656.25 541.9156250000001 608.41875 541.9156250000001C560.5875 541.9156250000001 522.3218750000001 582.3968749999999 522.3218750000001 633C522.3218750000001 646.49375 512.75625 659.9875 496.8125 659.9875C480.86875 659.9875 471.3 649.865625 471.3 633C471.3 582.3968749999999 433.034375 541.9156250000001 385.203125 541.9156250000001C337.371875 541.9156250000001 299.1071875 582.3968749999999 299.1071875 633C299.1071875 646.49375 289.5409375 659.9875 273.596875 659.9875C257.653125 659.9875 254.464375 646.49375 254.464375 633C254.464375 582.3968749999999 216.1990625 541.9156250000001 168.3671875 541.9156250000001C120.535625 541.9156250000001 82.2703125 582.3968749999999 82.2703125 633C82.2703125 643.1187500000001 85.4590625 656.6125 88.648125 666.734375V670.10625L123.724375 855.6478125H882.653125L920.91875 636.371875C917.728125 633 917.728125 633 917.728125 633z" />
    <glyph glyph-name="telephone"
      unicode="&#xEA30;"
      horiz-adv-x="1000" d="M357.753125 91.8187499999999C366.015625 83.734375 369.80625 83.096875 378.6125 88.18125C396.1 98.2781250000001 410.359375 106.3625000000001 441.596875 123.959375L443.1656250000001 124.8406250000001C468.01875 138.8406250000001 479.946875 145.5906249999999 494.10625 153.703125C503.2624999999999 158.9500000000001 503.225 158.8625000000001 500.290625 165.1781249999999C489.925 187.5 482.03125 205.44375 464.64375 245.7062500000001C452.79375 273.146875 447.45 285.415625 440.7312500000001 300.4406250000001C437.2125 308.30625 434.884375 309.7093749999999 429.296875 308.5375C419.834375 306.55625 410.46875 305.5718750000001 398.5125 304.996875C395.634375 304.8562500000001 393.4125 304.771875 388.365625 304.5906250000001C371.625 303.9906249999999 364.678125 303.409375 357.23125 301.678125C318.9000000000001 292.753125 294.0159375 306.853125 283.5225000000001 341.7000000000001C255.0140625 436.378125 254.9865625 531.334375 283.166875 626.825C292.86625 659.703125 316.3625 674.153125 352.6031250000001 667.265625C362.984375 665.296875 371.95 664.409375 392.796875 662.965625C393.6875 662.903125 393.6875 662.903125 394.5875 662.840625C405.95 662.05 412.309375 661.5375 419.478125 660.7562499999999C433.1125 659.278125 437.48125 661.2093749999999 440.840625 668.85625C446.3125 681.3 450.7125 691.44375 460.3375 713.75125C479.95 759.2021875 488.78125 779.2896875 500.36875 804.27125C503.240625 810.4640625 503.240625 810.464375 493.965625 815.7928125C477.26875 825.389375 463.70625 833.065625 433.54375 850.0534375C405.95 865.593125 393.746875 872.494375 378.578125 881.1765625C369.959375 886.109375 365.9125 885.3909375000001 357.484375 877.181875C244.311875 766.9490625 184.9725 637.8656249999999 181.690625 495.39375C183.1421875 337.328125 241.2175 205.790625 357.753125 91.8187499999999zM153.3434375 495.56875L125.0053125 496.134375C128.49625 652.596875 193.7459375 794.675625 316.8250000000001 914.5578125C342.784375 939.834375 375.475 945.63875 407.921875 927.0703125C422.934375 918.475 435.0625 911.6178125 462.228125 896.3178125C492.846875 879.074375 506.50625 871.3428125 523.39375 861.636875C555.171875 843.3775 567.64375 815.8615625 552.28125 782.72C540.953125 758.2990625 532.246875 738.4978125 512.9656249999999 693.8131249999999C503.146875 671.059375 498.715625 660.840625 493.184375 648.2593750000001C479.190625 616.409375 449.921875 603.4625000000001 413.003125 607.471875C406.821875 608.14375 401.05625 608.609375 390.4312500000001 609.346875C389.5437500000001 609.409375 389.5437500000001 609.409375 388.653125 609.471875C365.446875 611.08125 354.928125 612.121875 341.45 614.678125C336.953125 615.534375 336.39375 615.4875 338.015625 616.4875C339.4781250000001 617.384375 339.015625 616.628125 337.76875 612.4C312.3865625000001 526.3968749999999 312.41125 441.515625 338.040625 356.3968749999999C339.4781250000001 351.625 340.03125 350.740625 338.4625 351.6312499999999C336.91875 352.50625 338.121875 352.4656250000001 343.690625 353.7625C356.140625 356.659375 365.628125 357.453125 386.225 358.190625C391.01875 358.359375 393.078125 358.440625 395.621875 358.5625C404.7 359.003125 411.20625 359.684375 417.046875 360.909375C451.6375 368.15 479.49375 351.40625 492.940625 321.3406250000001C499.778125 306.04375 505.184375 293.6375000000001 516.9625 266.3625C534.325 226.1625 542.090625 208.509375 552.19375 186.753125C567.5593749999999 153.6531249999999 555.296875 126.05625 523.46875 107.821875C509.153125 99.61875 497.1375 92.8218750000001 472.165625 78.753125L470.596875 77.8687500000001C439.5375 60.375 425.4 52.359375 408.140625 42.39375C375.646875 23.640625 342.959375 29.13125 317.003125 54.53125C190.35625 178.390625 126.4784375 323.209375 125 495.35L153.3434375 495.56875zM902.228125 751.6134375C901.35625 676.5531249999999 880.4968749999999 610.80625 838.2937499999999 552.603125C828.275 538.778125 818.975 518.0843749999999 795.9812499999999 535.4281249999999C774.9406250000001 551.296875 782.04375 566.93125 794.384375 584.878125C845.46875 659.13125 861.359375 740.1481249999999 835.946875 828.2737500000001C826.546875 860.861875 811.3249999999999 890.7109375 791.34375 917.55125C778.3375 935.021875 779.3312500000001 948.6503125 795.634375 962.0215625C814.1031250000001 977.16965625 824.2125 963.8721875 834.446875 950.3171875C879.1875 891.041875 900.871875 823.7084375 902.228125 751.6134375zM781.74375 743.1753125C781.3781250000001 688.15 767.265625 644.815625 742.053125 604.9156250000001C732.359375 589.5687499999999 719.553125 581.903125 703.040625 592.378125C686.434375 602.91875 682.78125 618.115625 694.028125 635.70625C736.3156250000001 701.8778124999999 736.0593749999999 767.993125 693.7562499999999 834.0828125C682.428125 851.78625 686.8874999999999 866.9534375000001 703.54375 877.1684375C720.3000000000001 887.440625 732.8125 879.0328125 742.40625 863.865625C767.0625 824.895 780.5375 782.4246875 781.74375 743.1753125zM655.86875 748.0740625000001C656.146875 729.275625 651.63125 713.2015625 645.0968750000001 697.9834375C639.325 684.5375 631.56875 669.3875 615.8718749999999 678.6343750000001C601.9875 686.815625 587.50625 699.213125 595.515625 721.3134375C602.34375 740.145625 602.73125 757.5646875 595.815625 776.566875C587.203125 800.2365625 602.38125 813.5862500000001 617.80625 820.9846875000001C633.334375 828.4371874999999 640.6593750000001 812.2275 646.05625 798.728125C652.6468749999999 782.2534375 657.065625 764.9971875 655.86875 748.0740625000001z" />
    <glyph glyph-name="together"
      unicode="&#xEA31;"
      horiz-adv-x="1000" d="M776.93125 795.936875C749.6593750000001 806.468125 730.2625 833.0934374999999 730.2625 864.306875C730.2625 904.773125 762.83125 937.5 802.90625 937.5C842.98125 937.5 875.546875 904.773125 875.546875 864.306875C875.546875 833.0934374999999 856.15 806.468125 828.88125 795.936875C828.9250000000001 795.310625 828.946875 794.67875 828.946875 794.04125V773.5471875000001H942.709375C957.090625 773.5471875000001 968.75 761.75 968.75 747.1978125V67.9656250000001C968.75 40.7062500000001 932.846875 31.3875 919.88125 55.2843750000001L802.90625 270.8562500000001L685.93125 55.2843750000001C672.965625 31.3875 637.0625 40.7062500000001 637.0625 67.9656250000001V442.7125C637.0625 457.265625 648.721875 469.0625 663.103125 469.0625C677.484375 469.0625 689.1437500000001 457.265625 689.1437500000001 442.7125V170.70625L780.078125 338.2874999999999C789.96875 356.509375 815.84375 356.509375 825.734375 338.2874999999999L916.665625 170.70625V720.848125H678.609375L523.071875 430.490625C521.340625 427.134375 518.8812499999999 424.1312499999999 515.775 421.74375C514.1625 420.5 512.4156250000001 419.459375 510.584375 418.6375000000001C507.1625 417.09375 503.559375 416.35625 500 416.359375C496.440625 416.35625 492.8375 417.09375 489.415625 418.6375000000001C486.5375 419.93125 483.878125 421.753125 481.59375 424.0625C481.590625 424.06875 481.584375 424.071875 481.58125 424.078125C480.734375 424.934375 479.9375 425.859375 479.203125 426.8499999999999C478.340625 428.0031250000001 477.58125 429.221875 476.928125 430.490625L321.390625 720.848125H83.3334375V170.70625L174.266875 338.2874999999999C184.1559375 356.509375 210.0325 356.509375 219.9215625 338.2874999999999L310.8553125 170.70625V442.7125C310.8553125 457.265625 322.515625 469.0625 336.896875 469.0625C351.278125 469.0625 362.9375 457.265625 362.9375 442.7125V67.9656250000001C362.9375 40.7062500000001 327.034375 31.3875 314.06875 55.2843750000001L197.094375 270.8562500000001L80.1190625 55.2843750000001C67.153125 31.3875 31.25 40.7062500000001 31.25 67.9656250000001V747.1978125C31.25 761.75 42.909375 773.5471875000001 57.2915625 773.5471875000001H171.0525V794.04125C171.0525 794.67875 171.075 795.310625 171.1190625 795.936875C143.8490625 806.468125 124.451875 833.0934374999999 124.451875 864.306875C124.451875 904.773125 157.0203125 937.5 197.094375 937.5C237.1684375 937.5 269.736875 904.773125 269.736875 864.306875C269.736875 833.0934374999999 250.339375 806.468125 223.0696875 795.936875C223.11375 795.310625 223.1359375 794.67875 223.1359375 794.04125V773.5471875000001H336.896875C346.453125 773.5471875000001 355.2375 768.253125 359.790625 759.7534375L500 498.009375L640.209375 759.7534375C644.7625 768.253125 653.546875 773.5471875000001 663.103125 773.5471875000001H776.8625V794.04125C776.8625 794.67875 776.8874999999999 795.310625 776.93125 795.936875zM176.535 864.306875C176.535 853.0403125 185.715 843.8128125000001 197.094375 843.8128125000001C208.47375 843.8128125000001 217.6534375 853.0403125 217.6534375 864.306875C217.6534375 875.5865625 208.48375 884.8009375 197.094375 884.8009375C185.705 884.8009375 176.535 875.5865625 176.535 864.306875zM823.4656249999999 864.306875C823.4656249999999 875.5865625 814.29375 884.8009375 802.90625 884.8009375C791.515625 884.8009375 782.346875 875.5865625 782.346875 864.306875C782.346875 853.0403125 791.5250000000001 843.8128125000001 802.90625 843.8128125000001C814.284375 843.8128125000001 823.4656249999999 853.0403125 823.4656249999999 864.306875z" />
    <glyph glyph-name="touch-screen"
      unicode="&#xEA32;"
      horiz-adv-x="1000" d="M744.50625 192.109375H781.703125V31.25H125V968.75H790.384375C792.01875 601.128125 792.01875 407.796875 790.384375 388.7531250000001C788.75 369.7125 773.4593749999999 384.725 744.50625 433.790625V928.700625H173.590625V71.2781249999999H744.50625V192.109375zM256.3534375 223.565625C441.5375 224.4656250000001 538.2125 224.4656250000001 546.38125 223.565625C554.55 222.6625 560.471875 210.990625 564.140625 188.546875H215.2846875V830.3115625H702.075V490.1625H662.86875V785.48875H256.3534375V223.565625zM454.59375 149.8874999999999C448.246875 149.8874999999999 443.084375 144.6125000000001 443.084375 138.0437500000001C443.084375 131.43125 448.24375 126.1531249999999 454.59375 126.1531249999999C460.91875 126.1531249999999 466.10625 131.453125 466.10625 138.0437500000001C466.10625 144.5906249999999 460.915625 149.8874999999999 454.59375 149.8874999999999zM454.59375 174.56875C474.390625 174.56875 490.446875 158.1906250000001 490.446875 138.0437500000001C490.446875 117.859375 474.4 101.46875 454.59375 101.46875C434.753125 101.46875 418.7437500000001 117.8468750000001 418.7437500000001 138.0437500000001C418.7437500000001 158.203125 434.7625 174.56875 454.59375 174.56875zM400.75 905.1828125H522.384375C528.7781249999999 905.1828125 533.959375 899.9684374999999 533.959375 893.5365625V889.3834375C533.959375 882.95125 528.7781249999999 877.7371875 522.384375 877.7371875H400.75C394.359375 877.7371875 389.175 882.95125 389.175 889.3834375V893.5365625C389.175 899.9684374999999 394.359375 905.1828125 400.75 905.1828125zM673.453125 118.6875C669.04375 118.6875 664.73125 120.9187499999999 662.175 124.9781250000001C657.734375 132.0375 652.296875 140.0124999999999 645.56875 149.384375C634.546875 164.6218750000001 622.4875 167.05625 605.8125 170.4375C590.390625 173.56875 571.1875 177.45625 551.5625 193.5124999999999C546.903125 197.31875 541.5656250000001 202.14375 534.75625 208.71875C515.625 227.2062500000001 509.3 229.8125 490.53125 237.55625C482.28125 240.9500000000001 472.03125 245.190625 457.909375 251.90625C443.3062500000001 258.853125 421.24375 269.365625 420.521875 288.509375C420.109375 299.86875 427.440625 309.96875 442.328125 318.5218749999999C454.921875 325.740625 470.371875 333.1218750000001 489.515625 333.1218750000001C499.865625 333.1218750000001 510.521875 330.940625 521.6937499999999 326.5375C521.31875 327.1531250000001 520.94375 327.7687500000001 520.559375 328.415625C519.809375 329.6375000000001 519.2843750000001 330.50625 519.05 330.93125L425.95 495.834375C417.325 511.1125 417.1 528.925 425.328125 543.51875C433.253125 557.5625 447.5406250000001 566.2875 462.615625 566.2875C471.871875 566.2875 489.36875 562.8531250000001 502.659375 539.903125L552.6062499999999 453.60625C560.009375 462.725 571.425 468.178125 583.7281250000001 468.178125C588.8312500000001 468.178125 593.7843750000001 467.278125 598.45 465.571875C599.4000000000001 468.1468749999999 600.571875 470.6812500000001 601.99375 473.146875C610.2218750000001 487.4562500000001 624.75625 496.35 639.903125 496.35C645.4593749999999 496.35 653.915625 495.0875 663.0125 489.18125C671.125 500.540625 685.3625 507.7 700.3718749999999 507.7C718.015625 507.7 733.465625 497.815625 742.7906250000001 480.5875L768.40625 433.2906250000001C806.7218750000001 362.4656250000001 807.3625 338.1593750000001 807.7875 322.084375C807.9343749999999 316.6624999999999 808.025 314.3406250000001 809.26875 311.3093750000001C814.084375 299.325 823.64375 284.84375 832.88125 270.81875C839.6875 260.490625 846.7249999999999 249.80625 852.0124999999999 239.890625C855.4875 233.3968749999999 853.296875 225.2781250000001 847.078125 221.5125000000001L680.28125 120.6062500000001C678.1312499999999 119.3125 675.78125 118.6875 673.453125 118.6875zM454.64375 286.115625C462.790625 279.4375 471.0125 279.84375 483.828125 273.7406249999999C496.8 267.56875 498.09375 269.34375 505.7375 266.1906250000001C524.8000000000001 258.31875 534.36875 254.378125 556.2875 233.2C562.3000000000001 227.40625 566.928125 223.2125000000001 570.8562499999999 220.009375C584.80625 208.5875000000001 597.9718750000001 205.928125 611.9125 203.09375C629.440625 199.55 649.3093749999999 195.5218749999999 665.85 172.646875C669.540625 167.5124999999999 672.859375 162.775 675.846875 158.359375L814.565625 242.284375C811.25625 247.6125000000001 807.584375 253.19375 803.78125 258.959375C794.175 273.5281250000001 784.24375 288.6 778.628125 302.55625C775.584375 310.06875 775.421875 316.271875 775.271875 322.26875C774.93125 335.1593750000001 774.41875 354.646875 740.6437500000001 417.09375L716.021875 462.55625C710.446875 472.8625 703.028125 475.0062499999999 697.79375 475.0062499999999C690.44375 475.0062499999999 684.34375 471.028125 682.0968750000001 467.0875C680.95 465.06875 680.921875 463.4000000000001 682.03125 461.3625C686.0437499999999 454.384375 684.06875 446.3843750000001 678.0374999999999 442.640625C672.015625 438.89375 664.171875 440.8156250000001 660.434375 446.928125C660.20625 447.30625 659.990625 447.6750000000001 659.78125 448.0562500000001C653.64375 458.390625 646.503125 464.0999999999999 639.675 464.0999999999999C634.2875 464.0999999999999 628.7 460.4406250000001 625.446875 454.78125C624.015625 452.2874999999999 621.065625 445.8218750000001 624.4625 439.36875C624.6875 438.971875 624.925 438.5625 625.1531249999999 438.15625C628.625 431.90625 626.5656250000001 423.9656250000001 620.525 420.30625C614.49375 416.6375000000001 606.696875 418.578125 602.9968749999999 424.6843750000001C602.7125 425.16875 602.428125 425.653125 602.1625 426.1312499999999C596.4812499999999 435.59375 589.40625 437 585.6906250000001 437C580.9 437 576.659375 434.7375 574.6218749999999 431.08125C572.0125 426.390625 573.028125 419.56875 577.4656249999999 411.88125C581.0999999999999 405.6125000000001 579.059375 397.5281250000001 572.94375 393.81875C566.8156250000001 390.1125 558.915625 392.178125 555.29375 398.45C555.29375 398.45625 532.0625 438.6 485.603125 518.878125C482.31875 524.546875 476.828125 531.309375 469.2875 531.309375C464.053125 531.309375 458.753125 527.8843750000001 455.7625 522.603125C453.828125 519.16875 451.325 512.075 456.3625 503.153125L545.8 344.7375000000001C545.93125 344.515625 546.3187499999999 343.875 546.8499999999999 342.990625C565.1 313.0281250000001 568.7875 302.4125 564.0093750000001 293.609375C561.4656249999999 288.921875 556.753125 286.115625 551.4125 286.115625C547.5812500000001 286.115625 543.7687500000001 287.5125 539.0749999999999 290.6375000000001C522.325 301.790625 507.965625 307.2062500000001 495.153125 307.2062500000001C482.71875 307.2062500000001 470.615625 302.971875 460.9625 297.421875C457.015625 295.1781249999999 452.284375 290.6375000000001 454.64375 286.115625z" />
    <glyph glyph-name="twitter"
      unicode="&#xEA33;"
      horiz-adv-x="1000" d="M1000 808.41125C962.615625 792.835 925.234375 780.37375 881.61875 777.25875C925.234375 802.180625 956.3875 842.6790625 971.9625 889.408125C931.465625 864.4859375 887.85 848.9096875 841.121875 839.5640625C803.7375 880.0625 750.7781249999999 904.984375 694.703125 904.984375C582.553125 904.984375 489.096875 814.641875 489.096875 699.3768749999999C489.096875 683.8 492.2125 668.225 495.328125 652.646875C323.9875 661.99375 174.4546875 742.990625 71.65125 867.6012499999999C52.959375 836.44875 43.61375 802.180625 43.61375 764.7975C43.61375 693.1465625000001 80.996875 630.840625 133.95625 593.459375C99.6884375 593.459375 68.5359375 602.803125 40.4984375 618.3812499999999V615.265625C40.4984375 515.575 112.1496875 434.578125 205.6075 415.8875C186.9159375 412.771875 171.3396875 409.65625 152.648125 409.65625C140.186875 409.65625 127.7259375 409.65625 115.2646875 412.771875C140.186875 331.7750000000001 218.0684375 272.584375 305.2959375 269.4718750000001C236.76 213.396875 146.4175 182.2437500000001 49.844375 182.2437500000001C34.2678125 182.2437500000001 15.5763125 182.2437500000001 0 185.359375C93.4578125 129.284375 202.4921875 95.015625 317.75625 95.015625C694.703125 95.015625 900.3125 406.540625 900.3125 677.56875C900.3125 686.915625 900.3125 696.2618749999999 900.3125 702.4921875C937.69375 733.645 971.9625 767.9128125 1000 808.41125z" />
    <glyph glyph-name="woman"
      unicode="&#xEA34;"
      horiz-adv-x="1000" d="M434.665625 938.549375C443.7312500000001 948.09625 454.453125 955.535 466.73125 960.810625C479.03125 966.1009375 492.078125 968.75 505.75625 968.75C534.85 968.75 559.540625 958.8390625 578.975 939.2078125C598.3625000000001 919.6084375 608.14375 894.901875 608.14375 865.8921875C608.14375 848.5471875000001 604.3531250000001 832.549375 596.765625 818.1253125000001C594.084375 813.018125 591.046875 808.2309375 587.665625 803.7709375C590.746875 802.78 593.8218750000001 801.6253125 596.8875 800.3084375C608.65625 795.2446875 619.425 788.6424999999999 629.1750000000001 780.5096874999999C638.71875 772.5340625 647.25 763.3859375 654.78125 753.065625C662.36875 742.6303125 668.265625 731.6478125 672.725 719.245625L730.378125 519.46875C733.34375 511.1875 734.6843749999999 508.73125 734.6843749999999 500.45625V496.825C734.6843749999999 478.8875 730.275 463.5749999999999 721.2531250000001 451.340625C711.5625 438.203125 696.421875 431.6 677.1437500000001 431.1687500000001L712.378125 310.5437500000001H614.5968750000001L613.728125 119.603125C613.728125 109.734375 613.403125 100.18125 612.7624999999999 90.9499999999999C612.028125 80.6062500000001 609.790625 71.15625 605.996875 62.65625C601.728125 53.103125 594.86875 45.375 585.7156249999999 39.7062500000001C576.3375 33.8874999999999 563.975 31.25 548.5625 31.25C538.709375 31.25 528.7468749999999 33.96875 518.809375 39.196875C514.28125 41.56875 510.115625 44.28125 506.334375 47.328125C494.81875 36.75 480.81875 31.25 464.81875 31.25C451.90625 31.25 439.94375 34.25625 429.184375 40.26875C417 47.03125 406.11875 57.0749999999999 403.1656250000001 69.265625C400.2125000000001 81.453125 399.653125 86.33125 399.653125 89.675V310.5375H302.165L335.853125 431.21875C319.8125 431.971875 306.083125 438.18125 295.4550000000001 449.66875C284.305 461.684375 281.25 476.73125 281.25 494.096875V497.728125C281.25 505.9375 282.7381250000001 513.028125 286.0696875 518.890625L344.31875 725.3875C347.3 736.3215625 352.809375 746.8796875 360.734375 757.0525C368.234375 766.686875 376.7593750000001 775.328125 386.29375 782.9584375C396.053125 790.765 406.559375 796.909375 417.796875 801.3640625C420.6031250000001 802.475 423.41875 803.4528124999999 426.240625 804.29625C423.01875 808.6025 420.11875 813.2096875 417.54375 818.11125C409.953125 832.5415625 406.165625 848.5393750000001 406.165625 865.88C406.159375 879.74125 408.6625 892.9915625 413.66875 905.5321875C418.653125 918.05375 425.665625 929.0934375 434.665625 938.549375zM435.2625 354.6L442.2875 343.646875V98.86875C442.39375 96.034375 443.0625 93.5500000000001 444.296875 91.4125C446.15 88.203125 447.725 86.09375 451.190625 84.4968750000001C454.659375 82.896875 458.75 82.096875 464.4625 82.896875C470.175 83.696875 475.871875 86.7468750000001 478.75 93.11875C480.19375 95 480.19375 96.7281250000001 480.5375 98.86875C480.421875 98.359375 480.19375 97.15625 480.19375 95V354.59375H534.128125V98.86875C534.128125 96.1125000000001 535.259375 89.115625 537.871875 87.2375C542.1375 84.1593750000001 544.6062499999999 82.896875 551.8874999999999 82.896875C559.165625 82.896875 563.4781250000001 85.234375 564.859375 86.221875C566.853125 87.640625 568.178125 89.2874999999999 569.078125 91.4125C570.36875 94.471875 571.1875 98.4656250000001 571.415625 103.3874999999999C571.7093749999999 110.0625 571.859375 116.8468750000001 571.859375 123.7781249999999L572.825 347.2312500000001L580.025 354.59375H649.4968749999999L555.6125 689.9815625H598.8656249999999L602.86875 678.278125L604.003125 674.9125L657.596875 493.884375C661.828125 484.125 665.153125 480.98125 670.009375 478.70625C674.86875 476.43125 680.421875 473.734375 687.9499999999999 477.0062499999999C695.48125 480.278125 696.5593749999999 484.578125 697.565625 491.371875C698.571875 498.1656249999999 696.43125 505.325 696.321875 505.653125L635.8249999999999 707.2362499999999C633.24375 714.2571875 629.6125000000001 721.2115625 624.896875 728.1046875C620.2375 734.9190625 614.81875 740.9521875 608.6218749999999 746.2365625C602.615625 751.359375 596.16875 755.3459375 589.2531250000001 758.2346875000001C582.75625 760.94625 566.071875 761.9446875 559.165625 761.9446875H445.125C439.415625 761.9446875 433.4375 760.733125 427.125 758.2346875000001C420.44375 755.5796875 414.271875 751.9709375 408.578125 747.385C402.678125 742.6331250000001 397.603125 737.3190625 393.3062500000001 731.3946874999999C389.0625 725.5615625 386.0437500000001 719.9143750000001 384.403125 715.1471875L321.521875 497.925C321.56875 498.0156249999999 321.596875 496.76875 321.6 494.178125C321.6 489.915625 326.2125000000001 481.5968750000001 333.84375 478.70625C341.475 475.815625 355.11875 478.70625 358.371875 483.0187500000001C361.625 487.334375 361.23125 486.021875 362.115625 489.178125L420.9875 689.989375H460.809375L367.84375 354.6H435.2625zM466.3125 826.6496875C477.471875 815.0046875 490.5 809.4440625 506.5875 809.4440625C523.4625000000001 809.4440625 537.06875 815.09 548.5593749999999 826.801875C560.171875 838.6346875 565.75 852.223125 565.75 868.6240625C565.75 886.3790625 560.146875 900.40125 548.715625 911.8025C537.246875 923.2290625 523.24375 928.811875 505.553125 928.811875C489.634375 928.811875 476.903125 923.203125 466.1 911.4290625C454.909375 899.221875 449.490625 885.263125 449.490625 868.6240625C449.490625 852.1165625 454.9625 838.47 466.3125 826.6496875z" />
    <glyph glyph-name="youtube"
      unicode="&#xEA35;"
      horiz-adv-x="1000" d="M990.625 700C990.625 700 981.25 768.75 950 800C912.5 840.625 868.75 840.625 850 843.75C709.375 853.125 500 853.125 500 853.125C500 853.125 290.625 853.125 150 843.75C131.25 840.625 87.5 840.625 50 800C18.75 768.75 9.375 700 9.375 700C9.375 700 0 618.75 0 537.5V462.5C0 381.25 9.375 300 9.375 300C9.375 300 18.75 231.25 50 200C87.5 159.375 137.5 162.5 159.375 156.25C240.625 150 500 146.875 500 146.875C500 146.875 709.375 146.875 850 156.25C868.75 159.375 912.5 159.375 950 200C981.25 231.25 990.625 300 990.625 300C990.625 300 1000 381.25 1000 462.5V537.5C1000 618.75 990.625 700 990.625 700zM396.875 368.75V650L665.625 509.375L396.875 368.75z" />
  </font>
</defs>
</svg>
